<svg width="304" height="202" viewBox="0 0 304 202" fill="none" xmlns="http://www.w3.org/2000/svg">
<path d="M244.667 123.883C244.667 123.883 239.686 121.123 239.317 127.373C238.948 133.623 238.024 174.277 238.024 174.277" stroke="#263238" stroke-width="2" stroke-linecap="round" stroke-linejoin="round"/>
<path d="M236.715 127.927C236.715 127.927 240.768 136.94 238.932 173.724" stroke="#263238" stroke-width="2" stroke-linecap="round" stroke-linejoin="round"/>
<path d="M240.724 125.139C240.724 125.139 238.814 126.351 237.732 124.965C236.65 123.58 238.466 121.018 236.865 119.927C235.264 118.837 232.495 120.501 232.495 120.501C232.495 120.501 234.623 121.123 234.554 122.283C234.486 123.442 233.46 123.899 233.338 123.373C233.217 122.848 232.183 120.315 230.452 121.378C229.955 121.672 229.522 122.063 229.18 122.528C228.838 122.993 228.594 123.523 228.462 124.085C228.462 124.085 232.487 123.656 232.73 125.167C232.974 126.678 231.081 124.905 229.419 124.808C227.757 124.711 226.241 124.953 226.35 125.955C226.387 126.841 226.334 127.729 226.192 128.605C227.101 127.85 228.252 127.446 229.435 127.466C231.263 127.571 231.194 128.731 229.532 128.634C227.87 128.537 226.444 130.112 226.444 130.112C226.444 130.112 227.96 132.694 229.885 133.97C231.81 135.247 232.503 134.778 232.722 133.805C232.941 132.831 232.43 130.298 233.594 130.367C234.757 130.435 231.668 134.742 233.152 134.997C234.635 135.251 235.831 134.819 236.22 133.845L236.626 132.872C236.626 132.872 236.107 130.351 236.334 129.365C236.561 128.379 236.832 129.393 237.096 130.577C237.359 131.761 237.526 134.593 238.032 134.455C238.539 134.318 240.164 132.253 240.545 131.445C240.926 130.637 238.405 128.161 238.433 127.664C238.462 127.167 240.407 128.112 240.711 128.63C240.932 129.023 241.131 129.427 241.307 129.842C241.307 129.842 242.523 129.082 242.491 126.755C242.458 124.428 240.724 125.139 240.724 125.139Z" fill="white"/>
<path opacity="0.3" d="M240.724 125.139C240.724 125.139 238.814 126.351 237.732 124.965C236.65 123.58 238.466 121.018 236.865 119.927C235.264 118.837 232.495 120.501 232.495 120.501C232.495 120.501 234.623 121.123 234.554 122.283C234.486 123.442 233.46 123.899 233.338 123.373C233.217 122.848 232.183 120.315 230.452 121.378C229.955 121.672 229.522 122.063 229.18 122.528C228.838 122.993 228.594 123.523 228.462 124.085C228.462 124.085 232.487 123.656 232.73 125.167C232.974 126.678 231.081 124.905 229.419 124.808C227.757 124.711 226.241 124.953 226.35 125.955C226.387 126.841 226.334 127.729 226.192 128.605C227.101 127.85 228.252 127.446 229.435 127.466C231.263 127.571 231.194 128.731 229.532 128.634C227.87 128.537 226.444 130.112 226.444 130.112C226.444 130.112 227.96 132.694 229.885 133.97C231.81 135.247 232.503 134.778 232.722 133.805C232.941 132.831 232.43 130.298 233.594 130.367C234.757 130.435 231.668 134.742 233.152 134.997C234.635 135.251 235.831 134.819 236.22 133.845L236.626 132.872C236.626 132.872 236.107 130.351 236.334 129.365C236.561 128.379 236.832 129.393 237.096 130.577C237.359 131.761 237.526 134.593 238.032 134.455C238.539 134.318 240.164 132.253 240.545 131.445C240.926 130.637 238.405 128.161 238.433 127.664C238.462 127.167 240.407 128.112 240.711 128.63C240.932 129.023 241.131 129.427 241.307 129.842C241.307 129.842 242.523 129.082 242.491 126.755C242.458 124.428 240.724 125.139 240.724 125.139Z" fill="#263238"/>
<path d="M231.061 130.597C232.305 129.066 234.133 126.993 235.669 126.004" stroke="#263238" stroke-linecap="round" stroke-linejoin="round"/>
<path d="M229.618 132.464C229.618 132.464 229.938 132.019 230.457 131.357" stroke="#263238" stroke-linecap="round" stroke-linejoin="round"/>
<path d="M236.479 126.383C236.479 126.383 238.328 128.985 238.668 131.664" stroke="#263238" stroke-linecap="round" stroke-linejoin="round"/>
<path d="M234.388 127.923C234.388 127.923 234.907 127.624 234.713 130.932" stroke="#263238" stroke-linecap="round" stroke-linejoin="round"/>
<path d="M235.738 124.836C235.738 124.836 236.792 123.899 236.236 122.04" stroke="#263238" stroke-linecap="round" stroke-linejoin="round"/>
<path d="M234.311 126.424L233.557 125.05" stroke="#263238" stroke-linecap="round" stroke-linejoin="round"/>
<path d="M232.727 127.826C232.727 127.826 230.335 126.024 228.839 125.935" stroke="#263238" stroke-linecap="round" stroke-linejoin="round"/>
<path d="M247.517 120.23C247.517 120.23 247.44 122.961 245.3 123.095C243.16 123.228 241.838 119.677 239.649 120.529C237.461 121.382 237.25 125.28 237.25 125.28C237.25 125.28 239.325 123.58 240.444 124.44C241.563 125.301 241.303 126.622 240.699 126.412C240.095 126.201 236.841 125.478 236.731 127.927C236.686 128.624 236.783 129.323 237.016 129.982C237.249 130.641 237.614 131.246 238.089 131.761C238.089 131.761 240.403 127.454 242.09 128.238C243.776 129.021 240.699 129.704 239.467 131.296C238.235 132.888 237.44 134.564 238.531 135.142C239.446 135.709 240.301 136.367 241.084 137.105C241.084 137.105 240.793 134.851 242.146 133.102C243.5 131.352 244.615 132.209 243.387 133.801C242.159 135.392 242.766 137.889 242.766 137.889C242.766 137.889 246.39 138.14 248.984 137.081C251.578 136.023 251.595 135.025 250.76 134.128C249.925 133.231 247.039 132.031 247.898 130.916C248.757 129.801 250.979 135.821 252.247 134.512C253.516 133.203 253.893 131.72 253.184 130.666L252.47 129.611C252.47 129.611 249.584 128.399 248.749 127.514C247.914 126.63 249.118 127.034 250.484 127.575C251.85 128.116 254.805 129.882 255.016 129.284C255.226 128.686 254.258 125.648 253.706 124.727C253.155 123.806 248.948 124.622 248.47 124.254C247.991 123.887 250.265 122.59 250.991 122.638C251.716 122.687 252.612 122.86 252.612 122.86C252.612 122.86 252.677 121.135 250.318 119.576C247.959 118.016 247.517 120.23 247.517 120.23Z" fill="white"/>
<path opacity="0.2" d="M247.517 120.23C247.517 120.23 247.44 122.961 245.3 123.095C243.16 123.228 241.838 119.677 239.649 120.529C237.461 121.382 237.25 125.28 237.25 125.28C237.25 125.28 239.325 123.58 240.444 124.44C241.563 125.301 241.303 126.622 240.699 126.412C240.095 126.201 236.841 125.478 236.731 127.927C236.686 128.624 236.783 129.323 237.016 129.982C237.249 130.641 237.614 131.246 238.089 131.761C238.089 131.761 240.403 127.454 242.09 128.238C243.776 129.021 240.699 129.704 239.467 131.296C238.235 132.888 237.44 134.564 238.531 135.142C239.446 135.709 240.301 136.367 241.084 137.105C241.084 137.105 240.793 134.851 242.146 133.102C243.5 131.352 244.615 132.209 243.387 133.801C242.159 135.392 242.766 137.889 242.766 137.889C242.766 137.889 246.39 138.14 248.984 137.081C251.578 136.023 251.595 135.025 250.76 134.128C249.925 133.231 247.039 132.031 247.898 130.916C248.757 129.801 250.979 135.821 252.247 134.512C253.516 133.203 253.893 131.72 253.184 130.666L252.47 129.611C252.47 129.611 249.584 128.399 248.749 127.514C247.914 126.63 249.118 127.034 250.484 127.575C251.85 128.116 254.805 129.882 255.016 129.284C255.226 128.686 254.258 125.648 253.706 124.727C253.155 123.806 248.948 124.622 248.47 124.254C247.991 123.887 250.265 122.59 250.991 122.638C251.716 122.687 252.612 122.86 252.612 122.86C252.612 122.86 252.677 121.135 250.318 119.576C247.959 118.016 247.517 120.23 247.517 120.23Z" fill="#263238"/>
<path d="M246.411 133.595C245.721 131.308 244.886 128.068 244.943 125.862" stroke="#263238" stroke-linecap="round" stroke-linejoin="round"/>
<path d="M247.302 136.301C247.302 136.301 247.075 135.683 246.763 134.714" stroke="#263238" stroke-linecap="round" stroke-linejoin="round"/>
<path d="M245.875 125.313C245.875 125.313 249.746 125.244 252.669 126.727" stroke="#263238" stroke-linecap="round" stroke-linejoin="round"/>
<path d="M245.997 128.448C245.997 128.448 246.046 127.729 249.24 130.181" stroke="#263238" stroke-linecap="round" stroke-linejoin="round"/>
<path d="M243.824 125.006C243.824 125.006 243.606 123.313 241.356 122.602" stroke="#263238" stroke-linecap="round" stroke-linejoin="round"/>
<path d="M244.436 127.506L242.543 127.321" stroke="#263238" stroke-linecap="round" stroke-linejoin="round"/>
<path d="M244.765 130.039C244.765 130.039 241.323 131.203 240.217 132.633" stroke="#263238" stroke-linecap="round" stroke-linejoin="round"/>
<path d="M224.555 138.41C224.555 138.41 235.442 145.585 235.256 173.356" stroke="#263238" stroke-width="2" stroke-linecap="round" stroke-linejoin="round"/>
<path d="M237.98 136.516C237.98 136.516 237.631 139.659 235.142 139.614C232.654 139.57 231.47 135.34 228.868 136.12C226.265 136.899 225.645 141.372 225.645 141.372C225.645 141.372 228.203 139.606 229.415 140.701C230.627 141.796 230.197 143.299 229.52 143C228.843 142.701 225.159 141.562 224.798 144.377C224.681 145.179 224.728 145.996 224.937 146.778C225.146 147.561 225.513 148.293 226.014 148.931C226.014 148.931 229.095 144.175 230.963 145.238C232.832 146.301 229.22 146.801 227.648 148.523C226.075 150.244 225.009 152.106 226.201 152.874C227.205 153.612 228.132 154.452 228.965 155.378C228.965 155.378 228.839 152.748 230.586 150.858C232.333 148.967 233.521 150.05 231.952 151.779C230.384 153.508 230.85 156.441 230.85 156.441C230.85 156.441 235.013 157.071 238.105 156.102C241.198 155.132 241.307 153.977 240.428 152.87C239.548 151.763 236.334 150.098 237.432 148.894C238.531 147.69 240.521 154.841 242.11 153.451C243.699 152.062 244.274 150.385 243.553 149.1L242.795 147.816C242.795 147.816 239.581 146.155 238.701 145.044C237.822 143.933 239.171 144.527 240.695 145.278C242.219 146.03 245.466 148.349 245.762 147.674C246.058 146.999 245.227 143.42 244.696 142.293C244.165 141.166 239.216 141.727 238.697 141.259C238.178 140.79 240.93 139.505 241.761 139.643C242.38 139.745 242.993 139.88 243.597 140.047C243.597 140.047 243.833 138.059 241.259 136.039C238.685 134.019 237.98 136.516 237.98 136.516Z" fill="white"/>
<path opacity="0.3" d="M237.98 136.516C237.98 136.516 237.631 139.659 235.142 139.614C232.654 139.57 231.47 135.34 228.868 136.12C226.265 136.899 225.645 141.372 225.645 141.372C225.645 141.372 228.203 139.606 229.415 140.701C230.627 141.796 230.197 143.299 229.52 143C228.843 142.701 225.159 141.562 224.798 144.377C224.681 145.179 224.728 145.996 224.937 146.778C225.146 147.561 225.513 148.293 226.014 148.931C226.014 148.931 229.095 144.175 230.963 145.238C232.832 146.301 229.22 146.801 227.648 148.523C226.075 150.244 225.009 152.106 226.201 152.874C227.205 153.612 228.132 154.452 228.965 155.378C228.965 155.378 228.839 152.748 230.586 150.858C232.333 148.967 233.521 150.05 231.952 151.779C230.384 153.508 230.85 156.441 230.85 156.441C230.85 156.441 235.013 157.071 238.105 156.102C241.198 155.132 241.307 153.977 240.428 152.87C239.548 151.763 236.334 150.098 237.432 148.894C238.531 147.69 240.521 154.841 242.11 153.451C243.699 152.062 244.274 150.385 243.553 149.1L242.795 147.816C242.795 147.816 239.581 146.155 238.701 145.044C237.822 143.933 239.171 144.527 240.695 145.278C242.219 146.03 245.466 148.349 245.762 147.674C246.058 146.999 245.227 143.42 244.696 142.293C244.165 141.166 239.216 141.727 238.697 141.259C238.178 140.79 240.93 139.505 241.761 139.643C242.38 139.745 242.993 139.88 243.597 140.047C243.597 140.047 243.833 138.059 241.259 136.039C238.685 134.019 237.98 136.516 237.98 136.516Z" fill="#263238"/>
<path d="M235.442 151.831C234.858 149.133 234.206 145.315 234.473 142.774" stroke="#263238" stroke-linecap="round" stroke-linejoin="round"/>
<path d="M236.212 155.039C236.212 155.039 236.009 154.304 235.738 153.156" stroke="#263238" stroke-linecap="round" stroke-linejoin="round"/>
<path d="M235.604 142.208C235.604 142.208 240.063 142.495 243.305 144.483" stroke="#263238" stroke-linecap="round" stroke-linejoin="round"/>
<path d="M235.446 145.844C235.446 145.844 235.572 145.036 239.025 148.147" stroke="#263238" stroke-linecap="round" stroke-linejoin="round"/>
<path d="M233.265 141.679C233.265 141.679 233.172 139.707 230.647 138.673" stroke="#263238" stroke-linecap="round" stroke-linejoin="round"/>
<path d="M233.736 144.62L231.571 144.228" stroke="#263238" stroke-linecap="round" stroke-linejoin="round"/>
<path d="M233.878 147.577C233.878 147.577 229.796 148.591 228.381 150.139" stroke="#263238" stroke-linecap="round" stroke-linejoin="round"/>
<path d="M228.799 160.299C228.799 160.299 235.811 165.632 236.549 173.542L235.094 147.056" stroke="#263238" stroke-width="2" stroke-linecap="round" stroke-linejoin="round"/>
<path d="M245.774 156.437C236.549 154.78 236.549 173.542 236.549 173.542" stroke="#263238" stroke-width="2" stroke-linecap="round" stroke-linejoin="round"/>
<path d="M237.655 173.356C237.655 173.356 232.305 134.548 247.789 134.548" stroke="#263238" stroke-width="2" stroke-linecap="round" stroke-linejoin="round"/>
<path d="M242.26 155.318C240.999 153.908 238.32 153.908 236.747 157.52C235.175 161.131 236.589 160.501 236.589 160.501C236.589 160.501 239.581 159.56 241.453 158.929C243.326 158.299 245.863 156.732 246.021 157.677C246.179 158.622 244.761 159.56 243.026 159.875C241.291 160.19 236.727 161.442 237.197 162.388C237.667 163.333 238.774 166.153 238.774 166.153C240.121 165.015 241.541 163.966 243.026 163.014C245.077 161.757 246.338 162.23 245.235 163.64C244.133 165.05 240.979 166.626 241.611 168.508C242.244 170.391 246.038 172.75 246.038 172.75C246.038 172.75 246.508 168.823 247.614 167.567C248.721 166.311 248.717 167.725 248.401 169.922C248.242 170.858 248.137 171.803 248.084 172.75L252.495 174.318C253.216 173.223 254.005 172.175 254.858 171.179L255.668 170.395C255.668 170.395 252.203 167.409 252.045 165.547C251.887 163.685 254.408 165.547 255.194 165.862C255.98 166.177 257.241 168.371 257.241 168.371C257.241 168.371 258.031 164.763 258.189 163.523L258.348 162.267C258.348 162.267 255.036 161.01 253.775 161.01C252.515 161.01 251.887 161.951 251.887 160.695C251.887 159.439 253.147 158.655 254.566 158.812C255.85 159.024 257.114 159.339 258.348 159.754C258.348 159.754 259.292 158.966 258.976 156.611C258.66 154.255 257.873 154.255 255.984 154.885C254.096 155.516 252.831 156.905 251.412 156.905C249.994 156.905 250.784 155.18 251.728 154.708C252.673 154.235 255.036 153.294 255.51 153.136C255.984 152.979 252.989 150.781 251.412 150.47C249.836 150.159 247.797 151.278 247.947 152.825C248.247 156.106 243.52 156.752 242.26 155.318Z" fill="white"/>
<path d="M252.401 171.486C252.45 171.959 252.483 172.435 252.499 172.908" stroke="#263238" stroke-linecap="round" stroke-linejoin="round"/>
<path d="M249.235 160.214C250.62 163.325 251.616 166.594 252.202 169.947" stroke="#263238" stroke-linecap="round" stroke-linejoin="round"/>
<path d="M248.668 158.954C247.89 157.281 247.302 156.263 247.302 156.263C248.154 155.854 248.861 155.196 249.329 154.376C249.698 153.634 250.238 152.989 250.906 152.494" stroke="#263238" stroke-linecap="round" stroke-linejoin="round"/>
<path d="M241.786 161.6C241.786 161.6 247.46 159.245 247.46 159.717" stroke="#263238" stroke-linecap="round" stroke-linejoin="round"/>
<path d="M250.61 158.618C250.61 158.618 253.131 157.362 255.336 157.362" stroke="#263238" stroke-linecap="round" stroke-linejoin="round"/>
<path d="M249.685 162.408C248.592 163.303 247.589 164.301 246.69 165.389C245.77 166.471 245.026 167.69 244.485 169.001" stroke="#263238" stroke-linecap="round" stroke-linejoin="round"/>
<path d="M251.396 163.014C251.396 163.014 254.708 162.073 256.438 163.64" stroke="#263238" stroke-linecap="round" stroke-linejoin="round"/>
<path d="M257.387 141.804C255.672 140.794 253.775 140.77 252.843 139.703C251.911 138.637 253.739 138.087 254.716 138.491C255.692 138.895 257.958 140.055 258.384 140.309C258.809 140.564 258.518 136.867 257.723 135.461C256.929 134.055 254.752 133.259 253.67 134.395C251.38 136.794 247.805 133.647 248.048 131.773C248.291 129.898 246.536 127.882 242.779 129.066C239.021 130.25 240.415 130.9 240.415 130.9C240.415 130.9 243.091 132.536 244.809 133.55C246.528 134.564 249.365 135.429 248.753 136.164C248.141 136.899 246.5 136.451 245.125 135.356C243.751 134.261 239.807 131.643 239.402 132.617C238.997 133.591 237.578 136.253 237.578 136.253C239.324 136.52 241.051 136.902 242.746 137.396C245.04 138.111 245.511 139.368 243.719 139.465C241.927 139.562 238.669 138.22 237.639 139.929C236.609 141.638 237.319 146.03 237.319 146.03C237.319 146.03 240.602 143.812 242.276 143.82C243.95 143.828 242.88 144.753 241.007 145.957C240.196 146.453 239.413 146.992 238.66 147.573L240.363 151.924C241.665 151.748 242.977 151.655 244.29 151.645L245.401 151.722C245.401 151.722 245.401 147.157 246.714 145.804C248.028 144.45 248.263 147.581 248.542 148.381C248.822 149.181 247.983 151.569 247.983 151.569C247.983 151.569 251.226 149.795 252.288 149.092L253.346 148.385C253.346 148.385 252.13 145.072 251.319 144.123C250.508 143.173 249.369 143.315 250.318 142.507C251.266 141.699 252.693 142.103 253.504 143.287C254.182 144.392 254.772 145.55 255.267 146.749C255.267 146.749 256.483 146.947 258.06 145.165C259.636 143.384 259.105 142.81 257.387 141.804ZM242.479 146.83C241.218 146.203 244.209 144.947 244.209 144.947C245.316 144.781 243.739 147.46 242.483 146.822L242.479 146.83ZM244.599 140.968C244.063 140.701 245.673 140.16 245.673 140.16C248.007 140.592 245.142 141.23 244.603 140.96L244.599 140.968Z" fill="white"/>
<path d="M242.446 150.021C242.119 150.369 241.783 150.704 241.437 151.027" stroke="#263238" stroke-linecap="round" stroke-linejoin="round"/>
<path d="M248.911 140.249C247.464 143.331 245.641 146.224 243.484 148.862" stroke="#263238" stroke-linecap="round" stroke-linejoin="round"/>
<path d="M249.495 138.996C250.253 137.311 250.638 136.2 250.638 136.2C251.509 136.583 252.477 136.691 253.411 136.507C254.215 136.298 255.059 136.281 255.871 136.459" stroke="#263238" stroke-linecap="round" stroke-linejoin="round"/>
<path d="M248.125 138.572C248.482 138.265 242.981 135.538 242.981 135.538" stroke="#263238" stroke-linecap="round" stroke-linejoin="round"/>
<path d="M251.023 140.236C251.023 140.236 253.629 141.311 255.076 142.972" stroke="#263238" stroke-linecap="round" stroke-linejoin="round"/>
<path d="M247.549 141.994C246.154 141.761 244.74 141.662 243.326 141.699C241.904 141.715 240.494 141.953 239.147 142.406" stroke="#263238" stroke-linecap="round" stroke-linejoin="round"/>
<path d="M248.21 143.711C248.21 143.711 251.092 145.585 251.047 147.916" stroke="#263238" stroke-linecap="round" stroke-linejoin="round"/>
<path d="M232.909 163.555C231.531 162.747 230.002 162.723 229.261 161.863C228.519 161.002 229.978 160.57 230.765 160.897C231.551 161.224 233.371 162.153 233.719 162.355C234.068 162.557 233.825 159.588 233.184 158.469C232.544 157.35 230.793 156.695 229.942 157.613C228.097 159.54 225.22 157.011 225.418 155.5C225.617 153.989 224.202 152.369 221.166 153.322C218.13 154.275 219.265 154.801 219.265 154.801C219.265 154.801 221.418 156.118 222.8 156.93C224.182 157.742 226.448 158.441 225.973 159.035C225.499 159.628 224.162 159.265 223.055 158.38C221.949 157.495 218.775 155.391 218.446 156.174C218.118 156.958 216.983 159.119 216.983 159.119C218.388 159.333 219.778 159.64 221.142 160.037C222.986 160.614 223.363 161.628 221.92 161.705C220.477 161.782 217.867 160.703 217.056 162.077C216.245 163.45 216.801 166.985 216.801 166.985C216.801 166.985 219.444 165.204 220.789 165.208C222.135 165.212 221.276 165.959 219.772 166.929C219.117 167.326 218.485 167.759 217.879 168.226L219.249 171.728C220.297 171.586 221.353 171.511 222.411 171.502L223.306 171.567C223.306 171.567 223.306 167.89 224.364 166.804C225.422 165.717 225.609 168.234 225.832 168.876C226.055 169.518 225.382 171.441 225.382 171.441C225.382 171.441 228 170.015 228.847 169.446L229.698 168.88C229.698 168.88 228.718 166.214 228.053 165.45C227.388 164.687 226.48 164.8 227.242 164.137C228.004 163.475 229.151 163.826 229.804 164.767C230.351 165.658 230.827 166.59 231.227 167.555C231.227 167.555 232.203 167.713 233.472 166.278C234.741 164.844 234.283 164.367 232.909 163.555ZM220.911 167.595C219.898 167.09 222.305 166.08 222.305 166.08C223.193 165.955 221.924 168.104 220.907 167.599L220.911 167.595ZM222.621 162.877C222.188 162.663 223.485 162.23 223.485 162.23C225.365 162.594 223.051 163.099 222.621 162.881V162.877Z" fill="white"/>
<path d="M220.907 170.173C220.643 170.452 220.372 170.722 220.096 170.981" stroke="#263238" stroke-linecap="round" stroke-linejoin="round"/>
<path d="M226.087 162.311C224.92 164.79 223.452 167.117 221.717 169.24" stroke="#263238" stroke-linecap="round" stroke-linejoin="round"/>
<path d="M226.557 161.301C227.165 159.948 227.477 159.051 227.477 159.051C228.177 159.359 228.956 159.445 229.707 159.297C230.354 159.129 231.031 159.115 231.685 159.257" stroke="#263238" stroke-linecap="round" stroke-linejoin="round"/>
<path d="M221.312 158.53C221.312 158.53 225.742 160.723 225.455 160.954" stroke="#263238" stroke-linecap="round" stroke-linejoin="round"/>
<path d="M227.797 162.299C227.797 162.299 229.893 163.163 231.04 164.497" stroke="#263238" stroke-linecap="round" stroke-linejoin="round"/>
<path d="M224.989 163.713C223.867 163.523 222.729 163.444 221.592 163.474C220.447 163.488 219.312 163.68 218.228 164.044" stroke="#263238" stroke-linecap="round" stroke-linejoin="round"/>
<path d="M225.52 165.094C225.52 165.094 227.842 166.601 227.798 168.48" stroke="#263238" stroke-linecap="round" stroke-linejoin="round"/>
<path d="M227.283 137.627C227.283 137.627 225.548 138.883 224.445 137.627C223.343 136.37 224.92 133.857 223.339 132.916C221.758 131.975 219.245 133.7 219.245 133.7C219.245 133.7 221.292 134.172 221.292 135.271C221.292 136.37 220.347 136.839 220.189 136.37C220.031 135.901 218.929 133.542 217.352 134.641C216.897 134.946 216.51 135.34 216.212 135.799C215.915 136.258 215.714 136.773 215.621 137.311C215.621 137.311 219.399 136.681 219.715 138.095C220.031 139.509 218.138 137.938 216.566 137.938C214.993 137.938 213.57 138.253 213.728 139.194C213.814 140.03 213.814 140.872 213.728 141.707C214.544 140.945 215.607 140.5 216.724 140.451C218.455 140.451 218.455 141.549 216.882 141.549C215.309 141.549 214.045 143.121 214.045 143.121C214.045 143.121 215.621 145.476 217.51 146.575C219.399 147.674 220.031 147.205 220.189 146.26C220.347 145.315 219.715 142.963 220.818 142.963C221.92 142.963 219.245 147.205 220.66 147.359C222.074 147.512 223.181 147.048 223.497 146.102L223.813 145.161C223.813 145.161 223.181 142.806 223.339 141.865C223.497 140.923 223.813 141.865 224.125 142.963C224.437 144.062 224.757 146.733 225.228 146.575C225.698 146.418 227.121 144.377 227.437 143.594C227.753 142.81 225.228 140.608 225.228 140.139C225.228 139.671 227.121 140.451 227.437 140.923C227.665 141.279 227.874 141.645 228.065 142.022C228.065 142.022 229.168 141.238 229.009 139.037C228.851 136.835 227.283 137.627 227.283 137.627Z" fill="white"/>
<path d="M218.475 143.319C219.565 141.804 221.178 139.744 222.577 138.725" stroke="#263238" stroke-linecap="round" stroke-linejoin="round"/>
<path d="M217.198 145.161C217.198 145.161 217.478 144.725 217.928 144.07" stroke="#263238" stroke-linecap="round" stroke-linejoin="round"/>
<path d="M223.339 139.037C223.339 139.037 225.228 141.392 225.702 143.905" stroke="#263238" stroke-linecap="round" stroke-linejoin="round"/>
<path d="M221.454 140.592C221.454 140.592 221.924 140.277 221.924 143.42" stroke="#263238" stroke-linecap="round" stroke-linejoin="round"/>
<path d="M222.557 137.627C222.557 137.627 223.501 136.681 222.869 134.956" stroke="#263238" stroke-linecap="round" stroke-linejoin="round"/>
<path d="M221.296 139.194L220.505 137.938" stroke="#263238" stroke-linecap="round" stroke-linejoin="round"/>
<path d="M219.877 140.592C219.877 140.592 217.514 139.02 216.096 139.02" stroke="#263238" stroke-linecap="round" stroke-linejoin="round"/>
<path d="M243.192 172.803H231.012V190.276H243.192V172.803Z" fill="#263238" stroke="#263238" stroke-width="2" stroke-linecap="round" stroke-linejoin="round"/>
<path d="M133.485 38.5335C133.485 38.5335 133.631 33.3703 133.448 28.9304C133.265 24.4904 133.635 14.9722 133.635 14.9722" stroke="#263238" stroke-miterlimit="10"/>
<path d="M133.549 20.5716L131.527 18.9839" stroke="#263238" stroke-miterlimit="10"/>
<path d="M133.525 21.6624L134.246 20.5029" stroke="#263238" stroke-miterlimit="10"/>
<path d="M133.363 26.2559L135.158 24.7732" stroke="#263238" stroke-miterlimit="10"/>
<path d="M133.635 16.9235L132.686 16.063" stroke="#263238" stroke-miterlimit="10"/>
<path d="M133.347 27.0598L132.159 25.7913" stroke="#263238" stroke-miterlimit="10"/>
<path d="M133.448 32.0452L130.979 29.799" stroke="#263238" stroke-miterlimit="10"/>
<path d="M133.513 34.8126C134.142 34.5695 134.754 34.2847 135.345 33.9602" stroke="#263238" stroke-miterlimit="10"/>
<path d="M132.139 21.3675C131.146 20.6039 127.814 20.7372 127.173 22.325C126.533 23.9127 128.572 26.5023 130.517 26.3205C131.283 26.2478 131.616 26.1953 131.916 25.767L129.18 23.1006L132.143 25.4762C132.226 25.3215 132.294 25.1592 132.345 24.9914C132.378 24.8742 132.41 24.7449 132.435 24.6116C132.641 23.6622 133.075 22.0826 132.139 21.3675Z" fill="white"/>
<path d="M138.587 19.5253V19.5818C138.32 20.7655 136.966 21.4362 135.819 21.3352C135.66 21.3217 135.502 21.2933 135.349 21.2503C135.081 21.6733 134.915 22.1526 134.864 22.6503C134.814 23.1481 134.88 23.6507 135.057 24.1187C135.105 24.2525 135.169 24.3801 135.247 24.4985C135.584 24.2238 139.183 21.1615 139.183 21.1615L135.446 24.749C136.573 25.961 139.216 25.7873 140.136 23.5612C141.056 21.3352 139.884 19.8444 138.587 19.5253Z" fill="white"/>
<path d="M136.755 15.3843C134.818 14.9803 133.083 15.8368 133.107 17.8527C133.118 18.2972 133.22 18.7347 133.407 19.1384C133.593 19.5421 133.861 19.9033 134.193 20.2L136.192 17.4851L134.514 20.4464C134.89 20.702 135.325 20.8577 135.778 20.8989C136.921 20.9958 138.279 20.3252 138.547 19.1415C138.826 17.8204 138.693 15.8085 136.755 15.3843Z" fill="white"/>
<path d="M134.494 8.37488C134.494 8.37488 134.295 8.43548 133.055 9.03744C132.328 9.43652 131.79 10.1059 131.558 10.8993C131.325 11.6927 131.418 12.5455 131.814 13.2714C132.158 13.9495 132.752 14.4681 133.472 14.7177L133.971 9.91412L133.76 14.7823C133.854 14.792 133.949 14.792 134.044 14.7823C134.854 14.7015 136.123 13.74 136.245 11.7725C136.366 9.80504 134.494 8.37488 134.494 8.37488Z" fill="white"/>
<path d="M128.831 12.7421L132.572 15.7236C132.609 15.5923 132.622 15.4554 132.609 15.3196C132.434 13.6148 130.728 12.625 129.601 12.2694C128.474 11.9139 127.692 12.5482 128.418 14.1804C129.143 15.8125 131.044 16.6044 131.891 16.3579C132.093 16.3085 132.274 16.1985 132.41 16.0428L128.831 12.7421Z" fill="white"/>
<path d="M131.405 16.564C130.831 16.5227 130.275 16.3522 129.777 16.0653C129.279 15.7784 128.853 15.3825 128.531 14.9076C128.134 14.87 127.737 14.9889 127.427 15.2388C127.116 15.4887 126.916 15.8497 126.869 16.2448C126.488 18.0224 127.777 19.8808 129.638 19.6546C130.222 19.6242 130.776 19.388 131.202 18.988L127.878 15.962L131.437 18.6648C131.507 18.54 131.551 18.4027 131.567 18.2608C131.682 17.6916 131.626 17.1013 131.405 16.564V16.564Z" fill="white"/>
<path d="M131.385 26.4498C131.083 26.5788 130.76 26.6553 130.432 26.6761C129.216 26.7892 127.976 25.8398 127.36 24.7247C126.998 24.7491 126.655 24.8937 126.385 25.1354C126.115 25.3771 125.935 25.7019 125.872 26.0579C125.503 28.1385 127.437 30.8817 129.391 30.4454C129.898 30.3468 130.369 30.109 130.748 29.7586L126.484 25.6701L130.996 29.4919C131.254 29.1622 131.42 28.7707 131.478 28.3567C131.692 27.7324 131.658 27.0504 131.385 26.4498Z" fill="white"/>
<path d="M139.966 30.704C138.531 29.0476 136.824 30.5303 136.824 30.5303C136.824 30.5303 135.778 30.8737 135.381 32.3523C135.26 32.8009 135.278 33.2759 135.434 33.7138L139.747 31.209L135.539 33.9481C135.945 34.6915 136.788 35.1601 137.971 34.8167C139.86 34.2996 141.396 32.3725 139.966 30.704Z" fill="white"/>
<path d="M136.39 36.974H130.42V45.7852H136.39V36.974Z" fill="#263238"/>
<path d="M202.29 45.7126H123.542V190.842H202.29V45.7126Z" fill="white" stroke="#263238" stroke-miterlimit="10"/>
<path d="M191.184 47.5508H125.179V188.632H191.184V47.5508Z" fill="#263238" stroke="#263238" stroke-linecap="round" stroke-linejoin="round"/>
<path d="M191.184 69.4314H125.179V71.512H191.184V69.4314Z" fill="white" stroke="#263238" stroke-miterlimit="10"/>
<path d="M191.184 93.4856H125.179V95.5662H191.184V93.4856Z" fill="white" stroke="#263238" stroke-miterlimit="10"/>
<path d="M169.912 47.575H168.509V69.4273H169.912V47.575Z" fill="white" stroke="#263238" stroke-miterlimit="10"/>
<path d="M147.472 47.575H146.07V69.4273H147.472V47.575Z" fill="white" stroke="#263238" stroke-miterlimit="10"/>
<path d="M169.912 95.5905H168.509V117.443H169.912V95.5905Z" fill="white" stroke="#263238" stroke-miterlimit="10"/>
<path d="M147.472 95.5905H146.07V117.443H147.472V95.5905Z" fill="white" stroke="#263238" stroke-miterlimit="10"/>
<path d="M158.583 71.6292H157.18V93.4815H158.583V71.6292Z" fill="white" stroke="#263238" stroke-miterlimit="10"/>
<path d="M191.184 117.447H125.179V119.527H191.184V117.447Z" fill="white" stroke="#263238" stroke-miterlimit="10"/>
<path d="M191.184 141.42H125.179V189.367H191.184V141.42Z" fill="white" stroke="#263238" stroke-miterlimit="10"/>
<path d="M158.583 119.564H157.18V141.416H158.583V119.564Z" fill="white" stroke="#263238" stroke-miterlimit="10"/>
<path d="M192.801 45.7004V190.809L202.294 190.841V45.7004H192.801Z" fill="#263238" stroke="#263238" stroke-linecap="round" stroke-linejoin="round"/>
<path d="M174.273 49.2719H170.884V69.3789H174.273V49.2719Z" fill="white" stroke="#263238" stroke-miterlimit="10"/>
<path d="M174.273 65.0601H170.884V66.7084H174.273V65.0601Z" fill="white" stroke="#263238" stroke-miterlimit="10"/>
<path d="M174.273 51.312H170.884V52.9603H174.273V51.312Z" fill="white" stroke="#263238" stroke-miterlimit="10"/>
<path d="M177.739 49.2719H174.35V69.3789H177.739V49.2719Z" fill="white" stroke="#263238" stroke-miterlimit="10"/>
<path d="M177.739 65.0601H174.35V66.7084H177.739V65.0601Z" fill="white" stroke="#263238" stroke-miterlimit="10"/>
<path d="M177.739 51.312H174.35V52.9603H177.739V51.312Z" fill="white" stroke="#263238" stroke-miterlimit="10"/>
<path d="M181.208 49.2719H177.82V69.3789H181.208V49.2719Z" fill="white" stroke="#263238" stroke-miterlimit="10"/>
<path d="M181.208 65.0601H177.82V66.7084H181.208V65.0601Z" fill="white" stroke="#263238" stroke-miterlimit="10"/>
<path d="M181.208 51.312H177.82V52.9603H181.208V51.312Z" fill="white" stroke="#263238" stroke-miterlimit="10"/>
<path d="M184.674 49.2719H181.285V69.3789H184.674V49.2719Z" fill="white" stroke="#263238" stroke-miterlimit="10"/>
<path d="M190.32 49.2719H184.646V69.3789H190.32V49.2719Z" fill="white" stroke="#263238" stroke-miterlimit="10"/>
<path d="M184.674 65.0601H181.285V66.7084H184.674V65.0601Z" fill="white" stroke="#263238" stroke-miterlimit="10"/>
<path d="M184.674 51.312H181.285V52.9603H184.674V51.312Z" fill="white" stroke="#263238" stroke-miterlimit="10"/>
<path d="M151.603 49.2719H148.214V69.3789H151.603V49.2719Z" fill="white" stroke="#263238" stroke-miterlimit="10"/>
<path d="M151.603 65.0601H148.214V66.7084H151.603V65.0601Z" fill="white" stroke="#263238" stroke-miterlimit="10"/>
<path d="M151.603 51.312H148.214V52.9603H151.603V51.312Z" fill="white" stroke="#263238" stroke-miterlimit="10"/>
<path d="M155.068 49.2719H151.68V69.3789H155.068V49.2719Z" fill="white" stroke="#263238" stroke-miterlimit="10"/>
<path d="M155.068 65.0601H151.68V66.7084H155.068V65.0601Z" fill="white" stroke="#263238" stroke-miterlimit="10"/>
<path d="M155.068 51.312H151.68V52.9603H155.068V51.312Z" fill="white" stroke="#263238" stroke-miterlimit="10"/>
<path d="M158.538 49.2719H155.149V69.3789H158.538V49.2719Z" fill="white" stroke="#263238" stroke-miterlimit="10"/>
<path d="M158.538 65.0601H155.149V66.7084H158.538V65.0601Z" fill="white" stroke="#263238" stroke-miterlimit="10"/>
<path d="M158.538 51.312H155.149V52.9603H158.538V51.312Z" fill="white" stroke="#263238" stroke-miterlimit="10"/>
<path d="M162.004 49.2719H158.615V69.3789H162.004V49.2719Z" fill="white" stroke="#263238" stroke-miterlimit="10"/>
<path d="M167.65 49.2719H161.975V69.3789H167.65V49.2719Z" fill="white" stroke="#263238" stroke-miterlimit="10"/>
<path d="M162.004 65.0601H158.615V66.7084H162.004V65.0601Z" fill="white" stroke="#263238" stroke-miterlimit="10"/>
<path d="M162.004 51.312H158.615V52.9603H162.004V51.312Z" fill="white" stroke="#263238" stroke-miterlimit="10"/>
<path d="M151.603 97.3599H148.214V117.467H151.603V97.3599Z" fill="white" stroke="#263238" stroke-miterlimit="10"/>
<path d="M151.603 113.148H148.214V114.797H151.603V113.148Z" fill="white" stroke="#263238" stroke-miterlimit="10"/>
<path d="M151.603 99.4042H148.214V101.053H151.603V99.4042Z" fill="white" stroke="#263238" stroke-miterlimit="10"/>
<path d="M155.068 97.3599H151.68V117.467H155.068V97.3599Z" fill="white" stroke="#263238" stroke-miterlimit="10"/>
<path d="M155.068 113.148H151.68V114.797H155.068V113.148Z" fill="white" stroke="#263238" stroke-miterlimit="10"/>
<path d="M155.068 99.4042H151.68V101.053H155.068V99.4042Z" fill="white" stroke="#263238" stroke-miterlimit="10"/>
<path d="M158.538 97.3599H155.149V117.467H158.538V97.3599Z" fill="white" stroke="#263238" stroke-miterlimit="10"/>
<path d="M158.538 113.148H155.149V114.797H158.538V113.148Z" fill="white" stroke="#263238" stroke-miterlimit="10"/>
<path d="M158.538 99.4042H155.149V101.053H158.538V99.4042Z" fill="white" stroke="#263238" stroke-miterlimit="10"/>
<path d="M162.004 97.3599H158.615V117.467H162.004V97.3599Z" fill="white" stroke="#263238" stroke-miterlimit="10"/>
<path d="M167.65 97.3599H161.975V117.467H167.65V97.3599Z" fill="white" stroke="#263238" stroke-miterlimit="10"/>
<path d="M162.004 113.148H158.615V114.797H162.004V113.148Z" fill="white" stroke="#263238" stroke-miterlimit="10"/>
<path d="M162.004 99.4042H158.615V101.053H162.004V99.4042Z" fill="white" stroke="#263238" stroke-miterlimit="10"/>
<path d="M173.981 97.3599H170.593V117.467H173.981V97.3599Z" fill="white" stroke="#263238" stroke-miterlimit="10"/>
<path d="M173.981 113.148H170.593V114.797H173.981V113.148Z" fill="white" stroke="#263238" stroke-miterlimit="10"/>
<path d="M173.981 99.4042H170.593V101.053H173.981V99.4042Z" fill="white" stroke="#263238" stroke-miterlimit="10"/>
<path d="M177.451 97.3599H174.062V117.467H177.451V97.3599Z" fill="white" stroke="#263238" stroke-miterlimit="10"/>
<path d="M177.451 113.148H174.062V114.797H177.451V113.148Z" fill="white" stroke="#263238" stroke-miterlimit="10"/>
<path d="M177.451 99.4042H174.062V101.053H177.451V99.4042Z" fill="white" stroke="#263238" stroke-miterlimit="10"/>
<path d="M180.916 97.3599H177.528V117.467H180.916V97.3599Z" fill="white" stroke="#263238" stroke-miterlimit="10"/>
<path d="M180.916 113.148H177.528V114.797H180.916V113.148Z" fill="white" stroke="#263238" stroke-miterlimit="10"/>
<path d="M180.916 99.4042H177.528V101.053H180.916V99.4042Z" fill="white" stroke="#263238" stroke-miterlimit="10"/>
<path d="M184.386 97.3599H180.998V117.467H184.386V97.3599Z" fill="white" stroke="#263238" stroke-miterlimit="10"/>
<path d="M190.028 97.3599H184.354V117.467H190.028V97.3599Z" fill="white" stroke="#263238" stroke-miterlimit="10"/>
<path d="M184.386 113.148H180.998V114.797H184.386V113.148Z" fill="white" stroke="#263238" stroke-miterlimit="10"/>
<path d="M184.386 99.4042H180.998V101.053H184.386V99.4042Z" fill="white" stroke="#263238" stroke-miterlimit="10"/>
<path d="M129.366 97.3599H125.978V117.467H129.366V97.3599Z" fill="white" stroke="#263238" stroke-miterlimit="10"/>
<path d="M129.366 113.148H125.978V114.797H129.366V113.148Z" fill="white" stroke="#263238" stroke-miterlimit="10"/>
<path d="M129.366 99.4042H125.978V101.053H129.366V99.4042Z" fill="white" stroke="#263238" stroke-miterlimit="10"/>
<path d="M132.836 97.3599H129.447V117.467H132.836V97.3599Z" fill="white" stroke="#263238" stroke-miterlimit="10"/>
<path d="M132.836 113.148H129.447V114.797H132.836V113.148Z" fill="white" stroke="#263238" stroke-miterlimit="10"/>
<path d="M132.836 99.4042H129.447V101.053H132.836V99.4042Z" fill="white" stroke="#263238" stroke-miterlimit="10"/>
<path d="M136.301 97.3599H132.913V117.467H136.301V97.3599Z" fill="white" stroke="#263238" stroke-miterlimit="10"/>
<path d="M136.301 113.148H132.913V114.797H136.301V113.148Z" fill="white" stroke="#263238" stroke-miterlimit="10"/>
<path d="M136.301 99.4042H132.913V101.053H136.301V99.4042Z" fill="white" stroke="#263238" stroke-miterlimit="10"/>
<path d="M139.771 97.3599H136.382V117.467H139.771V97.3599Z" fill="white" stroke="#263238" stroke-miterlimit="10"/>
<path d="M145.413 97.3599H139.739V117.467H145.413V97.3599Z" fill="white" stroke="#263238" stroke-miterlimit="10"/>
<path d="M139.771 113.148H136.382V114.797H139.771V113.148Z" fill="white" stroke="#263238" stroke-miterlimit="10"/>
<path d="M139.771 99.4042H136.382V101.053H139.771V99.4042Z" fill="white" stroke="#263238" stroke-miterlimit="10"/>
<path d="M128.933 49.2719H125.544V69.3789H128.933V49.2719Z" fill="white" stroke="#263238" stroke-miterlimit="10"/>
<path d="M128.933 65.0601H125.544V66.7084H128.933V65.0601Z" fill="white" stroke="#263238" stroke-miterlimit="10"/>
<path d="M128.933 51.312H125.544V52.9603H128.933V51.312Z" fill="white" stroke="#263238" stroke-miterlimit="10"/>
<path d="M132.398 49.2719H129.009V69.3789H132.398V49.2719Z" fill="white" stroke="#263238" stroke-miterlimit="10"/>
<path d="M132.398 65.0601H129.009V66.7084H132.398V65.0601Z" fill="white" stroke="#263238" stroke-miterlimit="10"/>
<path d="M132.398 51.312H129.009V52.9603H132.398V51.312Z" fill="white" stroke="#263238" stroke-miterlimit="10"/>
<path d="M135.868 49.2719H132.479V69.3789H135.868V49.2719Z" fill="white" stroke="#263238" stroke-miterlimit="10"/>
<path d="M135.868 65.0601H132.479V66.7084H135.868V65.0601Z" fill="white" stroke="#263238" stroke-miterlimit="10"/>
<path d="M135.868 51.312H132.479V52.9603H135.868V51.312Z" fill="white" stroke="#263238" stroke-miterlimit="10"/>
<path d="M139.333 49.2719H135.945V69.3789H139.333V49.2719Z" fill="white" stroke="#263238" stroke-miterlimit="10"/>
<path d="M144.979 49.2719H139.305V69.3789H144.979V49.2719Z" fill="white" stroke="#263238" stroke-miterlimit="10"/>
<path d="M139.333 65.0601H135.945V66.7084H139.333V65.0601Z" fill="white" stroke="#263238" stroke-miterlimit="10"/>
<path d="M139.333 51.312H135.945V52.9603H139.333V51.312Z" fill="white" stroke="#263238" stroke-miterlimit="10"/>
<path d="M138.96 73.233H135.572V93.3401H138.96V73.233Z" fill="white" stroke="#263238" stroke-miterlimit="10"/>
<path d="M138.96 89.0214H135.572V90.6697H138.96V89.0214Z" fill="white" stroke="#263238" stroke-miterlimit="10"/>
<path d="M138.96 75.2772H135.572V76.9255H138.96V75.2772Z" fill="white" stroke="#263238" stroke-miterlimit="10"/>
<path d="M135.617 73.233H132.228V93.3401H135.617V73.233Z" fill="white" stroke="#263238" stroke-miterlimit="10"/>
<path d="M135.617 89.0214H132.228V90.6697H135.617V89.0214Z" fill="white" stroke="#263238" stroke-miterlimit="10"/>
<path d="M135.617 75.2772H132.228V76.9255H135.617V75.2772Z" fill="white" stroke="#263238" stroke-miterlimit="10"/>
<path d="M132.272 73.233H128.884V93.3401H132.272V73.233Z" fill="white" stroke="#263238" stroke-miterlimit="10"/>
<path d="M132.272 89.0214H128.884V90.6697H132.272V89.0214Z" fill="white" stroke="#263238" stroke-miterlimit="10"/>
<path d="M132.272 75.2772H128.884V76.9255H132.272V75.2772Z" fill="white" stroke="#263238" stroke-miterlimit="10"/>
<path d="M128.933 73.233H125.544V93.3401H128.933V73.233Z" fill="white" stroke="#263238" stroke-miterlimit="10"/>
<path d="M128.933 89.0214H125.544V90.6697H128.933V89.0214Z" fill="white" stroke="#263238" stroke-miterlimit="10"/>
<path d="M128.933 75.2772H125.544V76.9255H128.933V75.2772Z" fill="white" stroke="#263238" stroke-miterlimit="10"/>
<path d="M142.426 73.233H139.038V93.3401H142.426V73.233Z" fill="white" stroke="#263238" stroke-miterlimit="10"/>
<path d="M142.426 89.0214H139.038V90.6697H142.426V89.0214Z" fill="white" stroke="#263238" stroke-miterlimit="10"/>
<path d="M142.426 75.2772H139.038V76.9255H142.426V75.2772Z" fill="white" stroke="#263238" stroke-miterlimit="10"/>
<path d="M145.891 73.233H142.503V93.3401H145.891V73.233Z" fill="white" stroke="#263238" stroke-miterlimit="10"/>
<path d="M145.891 89.0214H142.503V90.6697H145.891V89.0214Z" fill="white" stroke="#263238" stroke-miterlimit="10"/>
<path d="M145.891 75.2772H142.503V76.9255H145.891V75.2772Z" fill="white" stroke="#263238" stroke-miterlimit="10"/>
<path d="M149.361 73.233H145.973V93.3401H149.361V73.233Z" fill="white" stroke="#263238" stroke-miterlimit="10"/>
<path d="M155.008 73.233H149.333V93.3401H155.008V73.233Z" fill="white" stroke="#263238" stroke-miterlimit="10"/>
<path d="M149.361 89.0214H145.973V90.6697H149.361V89.0214Z" fill="white" stroke="#263238" stroke-miterlimit="10"/>
<path d="M149.361 75.2772H145.973V76.9255H149.361V75.2772Z" fill="white" stroke="#263238" stroke-miterlimit="10"/>
<path d="M163.053 73.233H159.665V93.3401H163.053V73.233Z" fill="white" stroke="#263238" stroke-miterlimit="10"/>
<path d="M163.053 89.0214H159.665V90.6697H163.053V89.0214Z" fill="white" stroke="#263238" stroke-miterlimit="10"/>
<path d="M163.053 75.2772H159.665V76.9255H163.053V75.2772Z" fill="white" stroke="#263238" stroke-miterlimit="10"/>
<path d="M166.523 73.233H163.134V93.3401H166.523V73.233Z" fill="white" stroke="#263238" stroke-miterlimit="10"/>
<path d="M166.523 89.0214H163.134V90.6697H166.523V89.0214Z" fill="white" stroke="#263238" stroke-miterlimit="10"/>
<path d="M166.523 75.2772H163.134V76.9255H166.523V75.2772Z" fill="white" stroke="#263238" stroke-miterlimit="10"/>
<path d="M173.461 73.2281L170.302 74.5575L178.246 93.312L181.405 91.9825L173.461 73.2281Z" fill="white" stroke="#263238" stroke-miterlimit="10"/>
<path d="M179.7 87.9527L176.541 89.2821L177.192 90.8192L180.351 89.4898L179.7 87.9527Z" fill="white" stroke="#263238" stroke-miterlimit="10"/>
<path d="M174.269 75.1341L171.11 76.4635L171.761 78.0006L174.921 76.6712L174.269 75.1341Z" fill="white" stroke="#263238" stroke-miterlimit="10"/>
<path d="M178.25 93.3038H185.323L188.504 91.9827L181.407 91.9746L178.25 93.3038Z" fill="white" stroke="#263238" stroke-miterlimit="10"/>
<path d="M173.462 73.2209H180.106L188.504 91.9827L181.407 91.9746L173.462 73.2209Z" fill="white" stroke="#263238" stroke-miterlimit="10"/>
<path d="M169.867 73.233H166.479V93.3401H169.867V73.233Z" fill="white" stroke="#263238" stroke-miterlimit="10"/>
<path d="M169.867 89.0214H166.479V90.6697H169.867V89.0214Z" fill="white" stroke="#263238" stroke-miterlimit="10"/>
<path d="M169.867 75.2772H166.479V76.9255H169.867V75.2772Z" fill="white" stroke="#263238" stroke-miterlimit="10"/>
<path d="M169.867 73.233H173.463L170.301 74.5501L178.249 93.3038H169.867V73.233Z" fill="white" stroke="#263238" stroke-miterlimit="10"/>
<path d="M138.96 121.236H135.572V141.343H138.96V121.236Z" fill="white" stroke="#263238" stroke-miterlimit="10"/>
<path d="M138.96 137.025H135.572V138.673H138.96V137.025Z" fill="white" stroke="#263238" stroke-miterlimit="10"/>
<path d="M138.96 123.276H135.572V124.925H138.96V123.276Z" fill="white" stroke="#263238" stroke-miterlimit="10"/>
<path d="M135.617 121.236H132.228V141.343H135.617V121.236Z" fill="white" stroke="#263238" stroke-miterlimit="10"/>
<path d="M135.617 137.025H132.228V138.673H135.617V137.025Z" fill="white" stroke="#263238" stroke-miterlimit="10"/>
<path d="M135.617 123.276H132.228V124.925H135.617V123.276Z" fill="white" stroke="#263238" stroke-miterlimit="10"/>
<path d="M132.272 121.236H128.884V141.343H132.272V121.236Z" fill="white" stroke="#263238" stroke-miterlimit="10"/>
<path d="M132.272 137.025H128.884V138.673H132.272V137.025Z" fill="white" stroke="#263238" stroke-miterlimit="10"/>
<path d="M132.272 123.276H128.884V124.925H132.272V123.276Z" fill="white" stroke="#263238" stroke-miterlimit="10"/>
<path d="M128.933 121.236H125.544V141.343H128.933V121.236Z" fill="white" stroke="#263238" stroke-miterlimit="10"/>
<path d="M128.933 137.025H125.544V138.673H128.933V137.025Z" fill="white" stroke="#263238" stroke-miterlimit="10"/>
<path d="M128.933 123.276H125.544V124.925H128.933V123.276Z" fill="white" stroke="#263238" stroke-miterlimit="10"/>
<path d="M142.426 121.236H139.038V141.343H142.426V121.236Z" fill="white" stroke="#263238" stroke-miterlimit="10"/>
<path d="M142.426 137.025H139.038V138.673H142.426V137.025Z" fill="white" stroke="#263238" stroke-miterlimit="10"/>
<path d="M142.426 123.276H139.038V124.925H142.426V123.276Z" fill="white" stroke="#263238" stroke-miterlimit="10"/>
<path d="M145.891 121.236H142.503V141.343H145.891V121.236Z" fill="white" stroke="#263238" stroke-miterlimit="10"/>
<path d="M145.891 137.025H142.503V138.673H145.891V137.025Z" fill="white" stroke="#263238" stroke-miterlimit="10"/>
<path d="M145.891 123.276H142.503V124.925H145.891V123.276Z" fill="white" stroke="#263238" stroke-miterlimit="10"/>
<path d="M149.361 121.236H145.973V141.343H149.361V121.236Z" fill="white" stroke="#263238" stroke-miterlimit="10"/>
<path d="M155.008 121.236H149.333V141.343H155.008V121.236Z" fill="white" stroke="#263238" stroke-miterlimit="10"/>
<path d="M149.361 137.025H145.973V138.673H149.361V137.025Z" fill="white" stroke="#263238" stroke-miterlimit="10"/>
<path d="M149.361 123.276H145.973V124.925H149.361V123.276Z" fill="white" stroke="#263238" stroke-miterlimit="10"/>
<path d="M163.053 121.236H159.665V141.343H163.053V121.236Z" fill="white" stroke="#263238" stroke-miterlimit="10"/>
<path d="M163.053 137.025H159.665V138.673H163.053V137.025Z" fill="white" stroke="#263238" stroke-miterlimit="10"/>
<path d="M163.053 123.276H159.665V124.925H163.053V123.276Z" fill="white" stroke="#263238" stroke-miterlimit="10"/>
<path d="M166.523 121.236H163.134V141.343H166.523V121.236Z" fill="white" stroke="#263238" stroke-miterlimit="10"/>
<path d="M166.523 137.025H163.134V138.673H166.523V137.025Z" fill="white" stroke="#263238" stroke-miterlimit="10"/>
<path d="M166.523 123.276H163.134V124.925H166.523V123.276Z" fill="white" stroke="#263238" stroke-miterlimit="10"/>
<path d="M173.458 121.229L170.299 122.558L178.243 141.313L181.402 139.983L173.458 121.229Z" fill="white" stroke="#263238" stroke-miterlimit="10"/>
<path d="M179.617 135.596L176.462 136.929L177.115 138.464L180.27 137.131L179.617 135.596Z" fill="white" stroke="#263238" stroke-width="0.99925" stroke-miterlimit="10"/>
<path d="M174.266 123.135L171.107 124.464L171.759 126.001L174.918 124.672L174.266 123.135Z" fill="white" stroke="#263238" stroke-miterlimit="10"/>
<path d="M178.25 141.307H185.323L188.504 139.986L181.407 139.974L178.25 141.307Z" fill="white" stroke="#263238" stroke-miterlimit="10"/>
<path d="M173.462 121.22H180.106L188.504 139.986L181.407 139.974L173.462 121.22Z" fill="white" stroke="#263238" stroke-miterlimit="10"/>
<path d="M169.867 121.236H166.479V141.343H169.867V121.236Z" fill="white" stroke="#263238" stroke-miterlimit="10"/>
<path d="M169.867 137.025H166.479V138.673H169.867V137.025Z" fill="white" stroke="#263238" stroke-miterlimit="10"/>
<path d="M169.867 123.276H166.479V124.925H169.867V123.276Z" fill="white" stroke="#263238" stroke-miterlimit="10"/>
<path d="M169.867 121.236H173.463L170.301 122.549L178.249 141.307H169.867V121.236Z" fill="white" stroke="#263238" stroke-miterlimit="10"/>
<path d="M157.18 141.416V188.563" stroke="#263238" stroke-miterlimit="10"/>
<path d="M125.714 147.254H191.167" stroke="#263238" stroke-miterlimit="10"/>
<path d="M139.147 151.241V159.79" stroke="#263238" stroke-width="2" stroke-miterlimit="10"/>
<path d="M142.004 151.241V159.79" stroke="#263238" stroke-width="2" stroke-miterlimit="10"/>
<path d="M172.02 151.241V159.79" stroke="#263238" stroke-width="2" stroke-miterlimit="10"/>
<path d="M174.877 151.241V159.79" stroke="#263238" stroke-width="2" stroke-miterlimit="10"/>
<path d="M209.412 46.464V31.9685H230.562" stroke="#263238" stroke-miterlimit="10"/>
<path d="M232.118 31.9685H241.028V67.9245H209.412V48.6618" stroke="#263238" stroke-miterlimit="10"/>
<path d="M229.524 63.0765H213.672V36.8165H236.764V63.0765H231.34" stroke="#263238" stroke-miterlimit="10"/>
<path d="M229.658 44.8965H220.777V54.9965H229.658V44.8965Z" stroke="#263238" stroke-miterlimit="10"/>
<path d="M243.836 63.2219V54.1804H257.03" stroke="#263238" stroke-miterlimit="10"/>
<path d="M257.999 54.1804H263.556V76.6065H243.836V64.5915" stroke="#263238" stroke-miterlimit="10"/>
<path d="M256.382 73.5846H246.496V57.2024H260.897V73.5846H257.513" stroke="#263238" stroke-miterlimit="10"/>
<path d="M256.467 62.2443H250.926V68.5426H256.467V62.2443Z" stroke="#263238" stroke-miterlimit="10"/>
<path d="M34.7778 190.842H263.386" stroke="#263238" stroke-linecap="round" stroke-linejoin="round"/>
<path d="M50.9911 134.281C50.9911 134.281 48.5591 101.961 49.7751 98.3254C50.9911 94.6894 58.4897 94.8914 59.9084 94.8914C61.3271 94.8914 90.9164 94.8914 95.1724 96.9114C99.4284 98.9314 100.036 148.623 100.036 148.623H53.0177L50.9911 134.281Z" fill="#263238" stroke="#263238" stroke-miterlimit="10"/>
<path d="M101.654 131.656C101.654 131.656 96.7898 131.656 95.817 136.504C94.8442 141.352 98.6746 161.35 98.9583 167.006C99.2421 172.662 100.239 180.54 100.239 180.54H117.466L121.317 131.656H101.654Z" fill="#263238" stroke="#263238" stroke-miterlimit="10"/>
<path d="M121.317 131.656C121.317 131.656 116.453 131.656 115.237 136.504C114.021 141.352 116.858 161.35 116.858 167.006C116.858 172.662 117.466 180.54 117.466 180.54H123.546C123.546 180.54 124.154 165.996 124.154 163.976C124.154 161.956 126.586 140.948 125.37 136.706C124.154 132.464 123.141 132.06 121.317 131.656Z" fill="#636363" stroke="#263238" stroke-miterlimit="10"/>
<path d="M69.9401 97.0125C69.9401 97.0125 53.8281 103.577 53.8281 104.284C53.8281 104.991 59.3001 123.979 61.3268 126.908C63.3535 129.837 64.7721 133.069 65.3801 134.281C65.9881 135.493 68.6228 138.523 70.7508 138.523C72.8788 138.523 75.4121 135.998 82.2014 134.988C88.9908 133.978 95.0708 134.079 96.2868 133.17C97.5028 132.261 95.9828 129.837 95.7801 129.332C95.5774 128.827 94.7668 127.009 94.7668 127.009C94.7668 127.009 101.353 132.463 103.988 132.665C106.623 132.867 108.548 131.554 108.953 129.837C109.359 128.12 107.839 123.979 106.825 121.757C105.812 119.535 101.049 116 98.9214 113.273C96.7934 110.546 94.0574 107.314 92.1321 105.092C90.4543 103.136 88.3829 101.554 86.0521 100.446C84.2281 99.6385 79.5668 97.6185 76.6281 97.3155C73.6895 97.0125 69.9401 97.0125 69.9401 97.0125Z" fill="white" stroke="#263238" stroke-miterlimit="10"/>
<path d="M101.52 120.679C101.52 120.679 99.2256 127.01 100.036 128.626C100.847 130.242 103.007 130.779 103.007 130.779" stroke="#263238" stroke-miterlimit="10"/>
<path d="M67.5083 99.1334L80.8843 112.061L82.911 102.365" stroke="#263238" stroke-miterlimit="10"/>
<path d="M102.164 121.454C102.164 121.454 105.407 123.777 106.522 122.969C107.636 122.161 107.332 120.646 106.623 119.03C105.914 117.414 103.583 116.505 102.671 117.212C101.759 117.919 101.455 120.747 102.164 121.454Z" fill="white" stroke="#263238" stroke-miterlimit="10"/>
<path d="M68.9268 92.7705L69.4334 98.8305L80.1748 109.335L81.7961 101.861L82.5054 98.7295C82.5054 98.7295 75.5134 97.5175 73.2841 96.0025C71.0548 94.4875 68.9268 92.7705 68.9268 92.7705Z" fill="white" stroke="#263238" stroke-miterlimit="10"/>
<path d="M82.5054 98.7295C82.5054 98.7295 75.5134 97.5175 73.2841 96.0025C71.0548 94.4875 68.9268 92.7705 68.9268 92.7705L69.4334 98.8305L72.1492 101.485C74.2609 102.079 76.3646 102.366 77.7954 101.816C79.3831 101.241 80.9006 100.489 82.319 99.5739L82.5054 98.7295Z" fill="#263238" stroke="#263238" stroke-miterlimit="10"/>
<path d="M65.7166 88.0921C65.7166 88.0921 63.8237 79.4708 63.8237 77.9921C63.8237 76.5135 68.9593 68.9668 75.9837 70.1788C83.0082 71.3908 86.9277 75.4308 87.1993 76.6428C87.4709 77.8548 86.3886 80.2788 86.3886 80.2788C86.6025 80.981 86.7384 81.7044 86.794 82.4361C86.794 83.2441 85.578 86.7428 85.578 86.7428L85.1726 83.1068C85.1726 83.1068 81.7962 84.0521 79.9033 84.0521C78.0104 84.0521 74.7677 82.8401 74.7677 82.8401C74.7677 82.8401 75.4446 84.9935 74.7677 86.0721C74.0908 87.1508 72.0682 88.0921 72.0682 88.0921C72.0682 88.0921 71.7966 90.2455 70.986 90.2455C69.9859 90.1949 68.992 90.0598 68.0149 89.8415C67.4717 89.7081 65.7166 88.0921 65.7166 88.0921Z" fill="#263238" stroke="#263238" stroke-miterlimit="10"/>
<path d="M68.8256 89.0334C68.8256 89.0334 68.5541 85.8014 65.8505 86.6094C63.1469 87.4174 64.9061 90.3787 66.3936 91.8614C67.8812 93.3441 68.2825 92.2654 68.2825 92.2654C68.2825 92.2654 68.6878 95.3641 70.7145 97.1134C72.7412 98.8627 75.8501 102.095 79.0927 101.691C82.3354 101.287 84.6336 97.2467 85.039 94.2854C85.4443 91.3241 85.7118 84.3187 85.7118 83.5107C85.6142 82.5995 85.4337 81.6989 85.1727 80.8201C85.1727 80.8201 82.3354 82.8401 79.7696 82.2987C77.2039 81.7574 74.5003 80.6827 73.2843 80.6827C72.0683 80.6827 72.3358 82.4361 72.7412 82.9734C73.1465 83.5107 74.2287 84.5894 73.0127 85.2641C71.7967 85.9388 70.1754 86.6094 70.1754 86.6094V89.4374L68.8256 89.0334Z" fill="white" stroke="#263238" stroke-miterlimit="10"/>
<path d="M81.7518 87.5629L81.0871 94.8631L77.7593 93.9016" stroke="#263238" stroke-miterlimit="10"/>
<path d="M78.9426 94.4915C78.9426 94.4915 77.3212 94.4915 76.4295 94.5682C75.8939 94.6565 75.3496 94.6809 74.8082 94.6409C74.4393 94.5682 73.9975 94.2733 74.7352 95.0086C75.4729 95.7438 77.6941 96.6246 78.8777 96.7781C80.0613 96.9316 80.876 96.5559 81.7596 95.9701C82.6433 95.3843 83.381 94.7904 82.9432 94.645C82.3333 94.5368 81.7144 94.4867 81.0949 94.4955V94.8672L78.9426 94.4915Z" fill="#263238" stroke="#263238" stroke-miterlimit="10"/>
<path d="M76.6122 90.0677C76.8786 90.0677 77.0946 89.6228 77.0946 89.0739C77.0946 88.525 76.8786 88.0801 76.6122 88.0801C76.3458 88.0801 76.1299 88.525 76.1299 89.0739C76.1299 89.6228 76.3458 90.0677 76.6122 90.0677Z" fill="#263238"/>
<path d="M83.8229 88.9284C83.8229 89.4779 83.6081 89.9223 83.3447 89.9223C83.0812 89.9223 82.8623 89.4779 82.8623 88.9284C82.8623 88.379 83.0771 87.9305 83.3447 87.9305C83.6122 87.9305 83.8229 88.379 83.8229 88.9284Z" fill="#263238"/>
<path d="M74.8003 87.5629C74.8003 87.5629 76.7986 86.161 78.424 86.7549" stroke="#263238" stroke-miterlimit="10"/>
<path d="M82.1245 86.8276C82.1245 86.8276 84.1958 85.8661 85.0834 86.7509" stroke="#263238" stroke-miterlimit="10"/>
<path d="M77.9092 90.8999C77.9092 90.8999 77.4634 91.417 75.9839 91.8574" stroke="#263238" stroke-miterlimit="10"/>
<path d="M81.9746 90.5848C82.4123 90.8861 82.8845 91.1343 83.3811 91.3242" stroke="#263238" stroke-miterlimit="10"/>
<path d="M88.2817 109.739L88.9911 107.921C88.9911 107.921 89.9031 108.83 92.3351 108.83C94.7671 108.83 98.7191 110.547 98.7191 110.547L99.0231 111.052C99.0231 111.052 99.7324 108.931 101.05 108.527C102.367 108.123 104.495 106.709 104.799 106.305L105.103 105.901L106.522 107.113L100.239 115.395L88.4844 110.85L88.2817 109.739Z" fill="white" stroke="#263238" stroke-miterlimit="10"/>
<path d="M88.3828 109.031L85.3428 125.091L95.8814 127.515L99.7321 111.96L88.3828 109.031Z" fill="white" stroke="#263238" stroke-miterlimit="10"/>
<path d="M99.7325 111.96L106.522 107.112L102.468 122.666L95.8818 127.514L99.7325 111.96Z" fill="white" stroke="#263238" stroke-miterlimit="10"/>
<path d="M75.311 122.161L79.9035 120.275C79.9035 120.275 83.9568 115.968 84.3621 115.564C84.7675 115.16 88.8208 114.756 88.8208 114.756L93.2795 117.717C93.2795 117.717 94.0901 118.392 93.2795 118.659C92.4688 118.925 90.7137 118.121 90.7137 118.121L88.9546 117.043L87.8764 117.584L90.1706 119.467C90.1706 119.467 90.8475 121.22 90.8475 122.161C90.835 122.766 90.697 123.362 90.4421 123.911L89.0924 125.797L85.039 123.777C85.039 123.777 82.607 125.527 82.0639 125.797C81.5207 126.068 76.3892 125.664 76.3892 125.664L75.311 122.161Z" fill="white" stroke="#263238" stroke-miterlimit="10"/>
<path d="M85.0024 117.443L86.4373 117.172L87.6695 117.511" stroke="#263238" stroke-miterlimit="10"/>
<path d="M83.6367 120.101C83.6367 120.101 86.847 119.212 87.0537 119.212C87.2604 119.212 89.6519 121.665 89.6519 121.665L89.9234 124.323" stroke="#263238" stroke-miterlimit="10"/>
<path d="M83.7744 121.802L86.3685 121.871L88.76 123.438C89.0026 124.2 89.115 124.998 89.0924 125.797" stroke="#263238" stroke-miterlimit="10"/>
<path d="M56.6655 102.365C56.6655 102.365 53.6903 102.769 53.285 105.327C52.8796 107.884 50.1801 129.433 50.9908 131.857C51.8015 134.281 66.7988 130.108 67.3379 129.837C67.877 129.567 76.389 127.009 76.5268 126.472C76.6646 125.935 76.9321 121.487 75.7161 121.22C74.5001 120.954 62.8792 121.353 62.8792 121.353L61.2579 107.347" fill="white"/>
<path d="M56.6655 102.365C56.6655 102.365 53.6903 102.769 53.285 105.327C52.8796 107.884 50.1801 129.433 50.9908 131.857C51.8015 134.281 66.7988 130.108 67.3379 129.837C67.877 129.567 76.389 127.009 76.5268 126.472C76.6646 125.935 76.9321 121.487 75.7161 121.22C74.5001 120.954 62.8792 121.353 62.8792 121.353L61.2579 107.347" stroke="#263238" stroke-miterlimit="10"/>
<path d="M62.8795 121.354L55.7173 122.566" stroke="#263238" stroke-miterlimit="10"/>
<path d="M54.3672 120.949L60.5809 121.757" stroke="#263238" stroke-miterlimit="10"/>
<path d="M104.697 113.778C104.697 113.778 101.961 116.606 102.063 117.313C102.164 118.02 103.583 116.909 103.887 116.606C104.191 116.303 105.609 115.495 105.609 114.687C105.609 113.879 105.305 112.97 104.697 113.778Z" fill="white" stroke="#263238" stroke-miterlimit="10"/>
<path d="M105.002 115.495C105.002 115.495 105.812 116.303 105.812 117.01C105.812 117.717 104.09 120.04 103.279 120.04C102.468 120.04 103.076 118.424 103.482 117.717C103.887 117.01 105.002 115.495 105.002 115.495Z" fill="white" stroke="#263238" stroke-miterlimit="10"/>
<path d="M105.812 117.01C105.812 117.01 106.826 117.314 106.826 118.223C106.826 119.132 104.9 120.647 104.394 120.748C103.887 120.849 103.988 119.94 104.394 119.233C104.799 118.526 105.812 117.01 105.812 117.01Z" fill="white" stroke="#263238" stroke-miterlimit="10"/>
<path d="M106.826 118.223C107.033 118.734 107.103 119.291 107.028 119.839C106.927 120.849 105.407 121.455 104.9 121.455C104.394 121.455 104.394 120.748 104.394 120.748C105.251 119.952 106.063 119.109 106.826 118.223V118.223Z" fill="white" stroke="#263238" stroke-miterlimit="10"/>
<path d="M74.9543 190.841H73.029L72.0684 178.115H75.919L74.9543 190.841Z" fill="white" stroke="#263238" stroke-miterlimit="10"/>
<path d="M57.3225 190.841H55.3972L54.4365 178.115H58.2872L57.3225 190.841Z" fill="white" stroke="#263238" stroke-miterlimit="10"/>
<path d="M120.96 190.841H119.034L118.074 178.115H121.924L120.96 190.841Z" fill="white" stroke="#263238" stroke-miterlimit="10"/>
<path d="M103.328 190.841H101.403L100.442 178.115H104.293L103.328 190.841Z" fill="white" stroke="#263238" stroke-miterlimit="10"/>
<path d="M118.276 153.766H72.271V180.43H118.276V153.766Z" fill="#263238" stroke="#263238" stroke-miterlimit="10"/>
<path d="M151.647 149.5C151.647 149.5 156.511 147.48 157.593 146.672C158.676 145.864 160.159 147.613 159.482 149.5C158.805 151.387 157.05 154.752 154.351 156.368C151.651 157.984 149.487 159.329 148.944 159.867C148.401 160.404 148.538 162.428 146.244 163.236C143.95 164.044 141.109 162.428 139.487 159.867C137.866 157.305 136.784 155.56 136.784 155.56C136.784 155.56 136.922 153.673 139.621 152.732C142.321 151.791 146.917 151.383 146.917 151.383L151.647 149.5Z" fill="white" stroke="#263238" stroke-miterlimit="10"/>
<path d="M96.2872 133.17C96.2872 133.17 99.4934 132.395 100.304 132.799C101.115 133.203 103.818 135.764 103.818 135.764C103.818 135.764 120.165 136.031 121.381 136.572C122.597 137.113 135.163 146.672 137.866 148.017C140.57 149.363 142.864 150.575 142.864 150.575L140.837 159.463V160.271L140.975 161.62C140.975 161.62 133.947 159.463 132.192 159.059C130.437 158.655 123.141 154.885 122.464 154.885C121.787 154.885 116.25 153.269 116.25 153.269C116.25 153.269 115.439 152.732 106.656 151.924C97.8721 151.116 88.0103 150.171 84.4961 150.037C80.9818 149.904 76.3894 149.633 74.6343 148.959C72.8792 148.284 69.7703 143.573 69.2312 140.745C68.6921 137.917 74.3627 135.493 76.7947 134.415C79.2267 133.336 88.2819 131.991 89.9032 131.991C91.5246 131.991 96.2872 133.17 96.2872 133.17Z" fill="white" stroke="#263238" stroke-miterlimit="10"/>
<path d="M99.3593 137.109L96.6558 141.016L100.304 138.592" fill="white"/>
<path d="M99.3593 137.109L96.6558 141.016L100.304 138.592" stroke="#263238" stroke-miterlimit="10"/>
<path d="M140.837 148.826C140.837 148.826 144.757 145.727 145.567 144.786C146.378 143.844 149.081 138.726 149.621 137.11C150.16 135.494 151.513 134.686 152.458 135.898C153.402 137.11 154.079 139.534 154.618 140.612C155.157 141.691 154.351 146.939 152.729 148.692C151.108 150.446 148.867 154.692 148.405 155.56C147.189 157.847 145.296 158.117 144.08 158.251C142.864 158.384 139.893 155.156 139.893 155.156L140.837 148.826Z" fill="white" stroke="#263238" stroke-miterlimit="10"/>
<path d="M80.714 139.804C80.714 139.804 84.7673 138.996 88.4153 139.4C92.0633 139.804 99.4931 142.091 102.602 142.899C105.711 143.707 111.248 144.111 113.818 145.056C116.387 146.001 123.14 147.209 128.272 147.209C133.403 147.209 141.242 147.884 141.242 147.884C141.242 147.884 140.164 155.693 140.432 157.176C140.698 158.369 141.06 159.539 141.514 160.675C141.514 160.675 131.109 161.483 128.138 161.887C125.167 162.291 113.141 160.408 111.114 159.867C109.087 159.325 106.116 158.521 104.223 158.521C102.33 158.521 98.6824 159.329 93.4131 159.867C88.1437 160.404 80.714 158.117 79.7695 157.984C78.8251 157.851 75.4446 156.635 74.634 156.097C73.8233 155.56 69.0931 147.209 70.7144 143.707C72.3357 140.204 74.3624 139.667 74.3624 139.667" fill="white"/>
<path d="M80.714 139.804C80.714 139.804 84.7673 138.996 88.4153 139.4C92.0633 139.804 99.4931 142.091 102.602 142.899C105.711 143.707 111.248 144.111 113.818 145.056C116.387 146.001 123.14 147.209 128.272 147.209C133.403 147.209 141.242 147.884 141.242 147.884C141.242 147.884 140.164 155.693 140.432 157.176C140.698 158.369 141.06 159.539 141.514 160.675C141.514 160.675 131.109 161.483 128.138 161.887C125.167 162.291 113.141 160.408 111.114 159.867C109.087 159.325 106.116 158.521 104.223 158.521C102.33 158.521 98.6824 159.329 93.4131 159.867C88.1437 160.404 80.714 158.117 79.7695 157.984C78.8251 157.851 75.4446 156.635 74.634 156.097C73.8233 155.56 69.0931 147.209 70.7144 143.707C72.3357 140.204 74.3624 139.667 74.3624 139.667" stroke="#263238" stroke-miterlimit="10"/>
<path d="M105.569 153.391C108.176 153.908 110.936 155.483 114.669 156.942C119.651 158.885 129.622 158.707 130.907 158.885C132.192 159.063 135.455 158.885 135.455 158.885" fill="white"/>
<path d="M105.569 153.391C108.176 153.908 110.936 155.483 114.669 156.942C119.651 158.885 129.622 158.707 130.907 158.885C132.192 159.063 135.455 158.885 135.455 158.885" stroke="#263238" stroke-miterlimit="10"/>
<path d="M85.4727 155.217L86.9602 155.431C91.2892 156.077 99.5256 153.706 102.979 153.274" fill="white"/>
<path d="M85.4727 155.217L86.9602 155.431C91.2892 156.077 99.5256 153.706 102.979 153.274" stroke="#263238" stroke-miterlimit="10"/>
<path d="M81.1152 154.784C81.1152 154.784 81.8935 154.784 83.9242 155.023Z" fill="white"/>
<path d="M81.1152 154.784C81.1152 154.784 81.8935 154.784 83.9242 155.023" stroke="#263238" stroke-miterlimit="10"/>
<path d="M54.8376 131.656C54.8376 131.656 49.9736 131.656 49.0008 136.504C48.028 141.352 51.8381 161.35 52.1421 167.006C52.4461 172.662 53.423 180.54 53.423 180.54H70.6497L74.5003 131.656H54.8376Z" fill="#263238" stroke="#263238" stroke-miterlimit="10"/>
<path d="M74.5001 131.656C74.5001 131.656 69.6361 131.656 68.4201 136.504C67.2041 141.352 70.0415 161.35 70.0415 167.006C70.0415 172.662 70.6495 180.54 70.6495 180.54H76.7295C76.7295 180.54 77.3375 165.996 77.3375 163.976C77.3375 161.956 79.7695 140.948 78.5535 136.706C77.3375 132.464 76.3241 132.06 74.5001 131.656Z" fill="#636363" stroke="#263238" stroke-miterlimit="10"/>
<path d="M114.069 190.841H112.144L111.183 178.115H115.034L114.069 190.841Z" fill="white" stroke="#263238" stroke-miterlimit="10"/>
<path d="M130.485 190.841H128.56L127.599 178.115H131.45L130.485 190.841Z" fill="white" stroke="#263238" stroke-miterlimit="10"/>
<path d="M138.186 190.841H136.261L135.3 178.115H139.151L138.186 190.841Z" fill="white" stroke="#263238" stroke-miterlimit="10"/>
<path d="M154.4 190.841H152.474L151.514 178.115H155.364L154.4 190.841Z" fill="white" stroke="#263238" stroke-miterlimit="10"/>
<path d="M111.69 161.551H154.027C154.806 161.551 155.554 161.86 156.105 162.409C156.656 162.959 156.966 163.704 156.966 164.48V185.185H108.731V164.48C108.731 164.094 108.808 163.712 108.957 163.355C109.106 162.998 109.324 162.674 109.599 162.402C109.874 162.13 110.2 161.915 110.559 161.769C110.918 161.623 111.302 161.549 111.69 161.551V161.551Z" fill="#263238" stroke="#263238" stroke-miterlimit="10"/>
<path d="M154.047 161.552H138.644C137.865 161.552 137.117 161.86 136.566 162.409C136.015 162.959 135.706 163.704 135.706 164.481V185.186H156.986V164.481C156.984 163.704 156.675 162.96 156.124 162.411C155.573 161.862 154.826 161.553 154.047 161.552V161.552Z" fill="#636363" stroke="#263238" stroke-miterlimit="10"/>
</svg>
