<svg width="254" height="254" viewBox="0 0 254 254" fill="none" xmlns="http://www.w3.org/2000/svg">
<path d="M216.885 164.445L216.489 168.001L223.403 159.918C224.23 160.005 225.061 160.049 225.892 160.05" stroke="#263238" stroke-linecap="round" stroke-linejoin="round"/>
<path d="M208.224 139.918C207.315 141.289 206.746 142.856 206.563 144.49C205.907 150.398 210.54 155.986 217.54 158.572L217.185 161.747" stroke="#263238" stroke-linecap="round" stroke-linejoin="round"/>
<path d="M210.911 136.977C210.461 137.342 210.033 137.734 209.631 138.151" stroke="#263238" stroke-linecap="round" stroke-linejoin="round"/>
<path d="M236.839 136.977C233.683 134.814 230.034 133.48 226.227 133.096C222.204 132.603 218.122 133.203 214.411 134.833" stroke="#263238" stroke-linecap="round" stroke-linejoin="round"/>
<path d="M230.703 159.573C237.307 158.206 242.311 153.985 242.895 148.509C243.322 144.678 241.529 140.985 238.323 138.151" stroke="#263238" stroke-linecap="round" stroke-linejoin="round"/>
<path d="M214.417 140.904C214.976 141.008 215.55 141.001 216.106 140.882C216.662 140.764 217.19 140.536 217.658 140.213L220.126 142.128C219.954 142.184 219.969 141.818 220.152 141.808C220.335 141.798 220.472 141.966 220.599 142.098C221.178 142.712 222.153 142.733 222.981 142.555C223.809 142.377 224.617 142.047 225.46 142.077C225.962 142.13 226.455 142.244 226.929 142.418C230.322 143.469 233.853 143.998 237.368 144.516" stroke="#263238" stroke-linecap="round" stroke-linejoin="round"/>
<path d="M211.5 144.516C212.008 144.485 214.838 144.516 215.244 144.175L215.935 145.379L216.697 144.643C216.829 145.151 216.961 145.659 217.088 146.136C217.663 146.273 217.596 145.166 218.104 144.836C218.261 144.759 218.44 144.744 218.607 144.794C218.774 144.844 218.915 144.955 219.004 145.105C219.17 145.417 219.251 145.768 219.237 146.121L222.712 146.406L223.388 146.461C223.629 146.093 223.987 145.816 224.404 145.674C224.277 146.477 225.288 146.934 226.09 147.096C230.042 147.902 234.015 148.598 238.008 149.184" stroke="#263238" stroke-linecap="round" stroke-linejoin="round"/>
<path d="M213.045 150.033C213.365 150.256 213.756 149.84 214.147 149.789C214.538 149.738 214.858 150.033 215.204 150.21C215.549 150.388 216.118 150.312 216.139 149.926C216.22 150.434 216.85 150.617 217.363 150.688L230.703 152.562" stroke="#263238" stroke-linecap="round" stroke-linejoin="round"/>
<path d="M34.5439 132.679L39.8881 139.873L38.8162 130.459C40.094 129.839 41.316 129.11 42.4687 128.28C47.945 124.318 50.1497 117.942 48.1431 112.806C46.7359 109.22 43.439 106.782 39.2734 105.771" stroke="#263238" stroke-linecap="round" stroke-linejoin="round"/>
<path d="M13.4364 121.331C13.2699 122.96 13.4927 124.605 14.0867 126.131C16.2507 131.668 22.9462 134.463 30.3427 133.497" stroke="#263238" stroke-linecap="round" stroke-linejoin="round"/>
<path d="M14.4475 117.475C14.2206 118.008 14.0255 118.554 13.8633 119.111" stroke="#263238" stroke-linecap="round" stroke-linejoin="round"/>
<path d="M37.4088 105.425C33.608 104.971 29.754 105.481 26.2023 106.909C22.4115 108.342 19.0772 110.771 16.5503 113.939" stroke="#263238" stroke-linecap="round" stroke-linejoin="round"/>
<path d="M19.375 119.319C20.4678 118.978 21.3811 118.218 21.915 117.206L24.963 117.754C24.8309 117.881 24.6785 117.551 24.836 117.455C24.9935 117.358 25.1916 117.455 25.344 117.505C26.1466 117.78 27.0153 117.348 27.6656 116.804C28.3158 116.261 28.8746 115.585 29.6417 115.23C30.1102 115.042 30.5998 114.913 31.0996 114.844C34.5947 114.203 37.9627 113.025 41.3206 111.851" stroke="#263238" stroke-linecap="round" stroke-linejoin="round"/>
<path d="M18.4707 123.876C18.9228 123.607 21.4273 122.321 21.6305 121.844L22.8039 122.591C22.9157 122.255 23.0275 121.915 23.1341 121.575L24.1755 122.718C24.7496 122.575 24.1755 121.625 24.4499 121.107C24.552 120.967 24.7038 120.87 24.8745 120.837C25.0452 120.804 25.2221 120.837 25.3693 120.929C25.6595 121.124 25.8926 121.392 26.045 121.707L29.2505 120.345L29.8804 120.081C29.9165 119.645 30.095 119.232 30.3884 118.908C30.6525 119.685 31.76 119.614 32.5423 119.385C36.42 118.267 40.2622 117.038 44.0688 115.697" stroke="#263238" stroke-linecap="round" stroke-linejoin="round"/>
<path d="M22.4028 128.041C22.794 128.092 22.9464 127.533 23.2664 127.31C23.5865 127.086 24.0132 127.203 24.3993 127.193C24.7854 127.183 25.2578 126.863 25.0952 126.512C25.4051 126.924 26.0503 126.792 26.5329 126.619L39.2329 122.072" stroke="#263238" stroke-linecap="round" stroke-linejoin="round"/>
<path d="M189.448 45.527H62.7837C60.3175 45.527 58.3184 47.5262 58.3184 49.9923V164.099C58.3184 166.565 60.3175 168.565 62.7837 168.565H189.448C191.915 168.565 193.914 166.565 193.914 164.099V49.9923C193.914 47.5262 191.915 45.527 189.448 45.527Z" fill="white"/>
<path opacity="0.2" d="M193.914 112.923V164.231C193.914 165.38 193.458 166.481 192.646 167.294C191.835 168.106 190.734 168.563 189.586 168.565H62.6516C61.5024 168.565 60.4002 168.108 59.5875 167.295C58.7749 166.483 58.3184 165.381 58.3184 164.231V154.071H58.5876V160.919C58.5876 161.57 58.7159 162.215 58.9651 162.816C59.2143 163.417 59.5796 163.963 60.0401 164.423C60.5006 164.883 61.0472 165.248 61.6487 165.497C62.2502 165.745 62.8948 165.873 63.5457 165.872H186.172C186.823 165.873 187.467 165.745 188.069 165.497C188.67 165.248 189.217 164.883 189.677 164.423C190.138 163.963 190.503 163.417 190.752 162.816C191.002 162.215 191.13 161.57 191.13 160.919V120.533C191.13 119.618 190.766 118.741 190.12 118.094C189.473 117.447 188.595 117.084 187.681 117.084H58.3184V112.923H193.914Z" fill="black"/>
<path d="M189.448 45.527H62.7837C60.3175 45.527 58.3184 47.5262 58.3184 49.9923V164.099C58.3184 166.565 60.3175 168.565 62.7837 168.565H189.448C191.915 168.565 193.914 166.565 193.914 164.099V49.9923C193.914 47.5262 191.915 45.527 189.448 45.527Z" stroke="#263238" stroke-linecap="round" stroke-linejoin="round"/>
<path d="M182.108 127.533V121.656C182.109 121.37 182.053 121.087 181.944 120.823C181.835 120.559 181.675 120.319 181.473 120.117C181.271 119.915 181.031 119.755 180.767 119.646C180.503 119.537 180.22 119.481 179.934 119.482H72.2988C71.7222 119.482 71.1691 119.711 70.7614 120.118C70.3536 120.526 70.1246 121.079 70.1246 121.656V127.533C70.1246 128.11 69.8955 128.663 69.4877 129.071C69.08 129.479 68.527 129.708 67.9503 129.708V129.708C67.3723 129.708 66.818 129.937 66.4093 130.346C66.0006 130.755 65.771 131.309 65.771 131.887V143.485C65.771 146.159 66.8334 148.724 68.7245 150.615C70.6156 152.506 73.1804 153.568 75.8548 153.568V153.568C76.2846 153.568 76.6968 153.739 77.0007 154.043C77.3046 154.347 77.4753 154.759 77.4753 155.189V158.664C77.4753 159.946 77.9848 161.176 78.8918 162.083C79.7987 162.99 81.0288 163.5 82.3115 163.5H169.921C171.204 163.5 172.434 162.99 173.341 162.083C174.248 161.176 174.757 159.946 174.757 158.664V155.189C174.757 154.759 174.928 154.347 175.232 154.043C175.536 153.739 175.948 153.568 176.378 153.568C177.702 153.568 179.013 153.308 180.237 152.801C181.46 152.294 182.572 151.551 183.508 150.615C184.445 149.679 185.187 148.567 185.694 147.344C186.201 146.12 186.462 144.809 186.462 143.485V131.887C186.462 131.31 186.233 130.756 185.825 130.348C185.418 129.939 184.865 129.709 184.287 129.708C183.71 129.708 183.157 129.479 182.748 129.071C182.34 128.664 182.109 128.11 182.108 127.533V127.533Z" fill="#263238"/>
<path d="M78.3693 122.809H74.605C74.1443 122.809 73.7024 122.992 73.3765 123.318C73.0507 123.644 72.8677 124.086 72.8677 124.546V125.512C72.8677 127.513 74.4882 130.053 76.4897 130.053C78.4912 130.053 80.1118 127.513 80.1118 125.512V124.546C80.1104 124.085 79.9262 123.643 79.5996 123.318C79.273 122.992 78.8306 122.809 78.3693 122.809V122.809Z" fill="white" stroke="#263238" stroke-linecap="round" stroke-linejoin="round"/>
<path d="M87.3759 122.809H83.6116C83.1503 122.809 82.7079 122.992 82.3813 123.318C82.0547 123.643 81.8705 124.085 81.8691 124.546V125.512C81.8691 127.513 83.4897 130.053 85.4912 130.053C87.4927 130.053 89.1132 127.513 89.1132 125.512V124.546C89.1132 124.086 88.9302 123.644 88.6044 123.318C88.2785 122.992 87.8366 122.809 87.3759 122.809V122.809Z" fill="white" stroke="#263238" stroke-linecap="round" stroke-linejoin="round"/>
<path d="M96.4186 122.809H92.6544C92.1936 122.809 91.7517 122.992 91.4259 123.318C91.1 123.644 90.917 124.086 90.917 124.546V125.512C90.917 127.513 92.5375 130.053 94.534 130.053C96.5304 130.053 98.156 127.513 98.156 125.512V124.546C98.156 124.086 97.973 123.644 97.6471 123.318C97.3213 122.992 96.8794 122.809 96.4186 122.809V122.809Z" fill="white" stroke="#263238" stroke-linecap="round" stroke-linejoin="round"/>
<path d="M105.441 122.809H101.676C101.216 122.809 100.774 122.992 100.448 123.318C100.122 123.644 99.939 124.086 99.939 124.546V125.512C99.939 127.513 101.559 130.053 103.561 130.053C105.563 130.053 107.178 127.513 107.178 125.512V124.546C107.178 124.318 107.133 124.092 107.046 123.882C106.958 123.671 106.83 123.479 106.669 123.318C106.508 123.157 106.316 123.029 106.105 122.941C105.895 122.854 105.669 122.809 105.441 122.809V122.809Z" fill="white" stroke="#263238" stroke-linecap="round" stroke-linejoin="round"/>
<path d="M114.463 122.809H110.698C110.238 122.809 109.796 122.992 109.47 123.318C109.144 123.644 108.961 124.086 108.961 124.546V125.512C108.961 127.513 110.581 130.053 112.583 130.053C114.584 130.053 116.205 127.513 116.205 125.512V124.546C116.204 124.085 116.02 123.643 115.693 123.318C115.366 122.992 114.924 122.809 114.463 122.809V122.809Z" fill="white" stroke="#263238" stroke-linecap="round" stroke-linejoin="round"/>
<path d="M123.49 122.809H119.725C119.264 122.809 118.822 122.992 118.495 123.318C118.168 123.643 117.984 124.085 117.983 124.546V125.512C117.983 127.513 119.603 130.053 121.605 130.053C123.606 130.053 125.227 127.513 125.227 125.512V124.546C125.227 124.086 125.044 123.644 124.718 123.318C124.392 122.992 123.95 122.809 123.49 122.809V122.809Z" fill="white" stroke="#263238" stroke-linecap="round" stroke-linejoin="round"/>
<path d="M132.512 122.809H128.748C128.287 122.809 127.845 122.992 127.519 123.318C127.193 123.644 127.01 124.086 127.01 124.546V125.512C127.01 127.513 128.631 130.053 130.627 130.053C132.624 130.053 134.249 127.513 134.249 125.512V124.546C134.249 124.086 134.066 123.644 133.74 123.318C133.415 122.992 132.973 122.809 132.512 122.809V122.809Z" fill="white" stroke="#263238" stroke-linecap="round" stroke-linejoin="round"/>
<path d="M141.534 122.809H137.77C137.309 122.809 136.867 122.992 136.541 123.318C136.215 123.644 136.032 124.086 136.032 124.546V125.512C136.032 127.513 137.653 130.053 139.654 130.053C141.656 130.053 143.271 127.513 143.271 125.512V124.546C143.271 124.086 143.088 123.644 142.762 123.318C142.437 122.992 141.995 122.809 141.534 122.809V122.809Z" fill="white" stroke="#263238" stroke-linecap="round" stroke-linejoin="round"/>
<path d="M150.556 122.809H146.812C146.584 122.809 146.358 122.854 146.147 122.941C145.936 123.029 145.745 123.157 145.584 123.318C145.422 123.479 145.294 123.671 145.207 123.882C145.12 124.092 145.075 124.318 145.075 124.546V125.512C145.075 127.513 146.695 130.053 148.697 130.053C150.698 130.053 152.319 127.513 152.319 125.512V124.546C152.318 124.316 152.272 124.089 152.183 123.876C152.094 123.664 151.963 123.472 151.799 123.31C151.636 123.149 151.441 123.021 151.228 122.935C151.014 122.849 150.786 122.806 150.556 122.809V122.809Z" fill="white" stroke="#263238" stroke-linecap="round" stroke-linejoin="round"/>
<path d="M159.583 122.809H155.819C155.358 122.809 154.915 122.992 154.589 123.318C154.262 123.643 154.078 124.085 154.077 124.546V125.512C154.077 127.513 155.697 130.053 157.699 130.053C159.7 130.053 161.321 127.513 161.321 125.512V124.546C161.321 124.086 161.138 123.644 160.812 123.318C160.486 122.992 160.044 122.809 159.583 122.809V122.809Z" fill="white" stroke="#263238" stroke-linecap="round" stroke-linejoin="round"/>
<path d="M168.605 122.809H164.841C164.38 122.809 163.938 122.992 163.612 123.318C163.287 123.644 163.104 124.086 163.104 124.546V125.512C163.104 127.513 164.724 130.053 166.72 130.053C168.717 130.053 170.342 127.513 170.342 125.512V124.546C170.342 124.086 170.159 123.644 169.834 123.318C169.508 122.992 169.066 122.809 168.605 122.809V122.809Z" fill="white" stroke="#263238" stroke-linecap="round" stroke-linejoin="round"/>
<path d="M177.627 122.809H173.863C173.402 122.809 172.96 122.992 172.634 123.318C172.309 123.644 172.125 124.086 172.125 124.546V125.512C172.125 127.508 173.736 130.048 175.768 130.048C177.8 130.048 179.385 127.508 179.385 125.507V124.541C179.384 124.312 179.338 124.085 179.249 123.873C179.16 123.662 179.03 123.47 178.867 123.309C178.704 123.148 178.51 123.021 178.297 122.935C178.084 122.849 177.857 122.806 177.627 122.809V122.809Z" fill="white" stroke="#263238" stroke-linecap="round" stroke-linejoin="round"/>
<path d="M78.3693 141.93H74.605C74.1443 141.93 73.7024 142.113 73.3765 142.439C73.0507 142.765 72.8677 143.207 72.8677 143.668V144.633C72.8677 146.634 74.4882 149.174 76.4897 149.174C78.4912 149.174 80.1118 146.634 80.1118 144.633V143.668C80.1104 143.206 79.9262 142.764 79.5996 142.439C79.273 142.113 78.8306 141.93 78.3693 141.93V141.93Z" fill="white" stroke="#263238" stroke-linecap="round" stroke-linejoin="round"/>
<path d="M87.3759 141.93H83.6116C83.1503 141.93 82.7079 142.113 82.3813 142.439C82.0547 142.764 81.8705 143.206 81.8691 143.668V144.633C81.8691 146.634 83.4897 149.174 85.4912 149.174C87.4927 149.174 89.1132 146.634 89.1132 144.633V143.668C89.1132 143.207 88.9302 142.765 88.6044 142.439C88.2785 142.113 87.8366 141.93 87.3759 141.93V141.93Z" fill="white" stroke="#263238" stroke-linecap="round" stroke-linejoin="round"/>
<path d="M96.4186 141.93H92.6544C92.1936 141.93 91.7517 142.113 91.4259 142.439C91.1 142.765 90.917 143.207 90.917 143.668V144.633C90.917 146.634 92.5375 149.174 94.534 149.174C96.5304 149.174 98.156 146.634 98.156 144.633V143.668C98.156 143.207 97.973 142.765 97.6471 142.439C97.3213 142.113 96.8794 141.93 96.4186 141.93V141.93Z" fill="white" stroke="#263238" stroke-linecap="round" stroke-linejoin="round"/>
<path d="M105.441 141.93H101.676C101.216 141.93 100.774 142.113 100.448 142.439C100.122 142.765 99.939 143.207 99.939 143.668V144.633C99.939 146.634 101.559 149.174 103.561 149.174C105.563 149.174 107.178 146.634 107.178 144.633V143.668C107.178 143.439 107.133 143.213 107.046 143.003C106.958 142.792 106.83 142.6 106.669 142.439C106.508 142.278 106.316 142.15 106.105 142.062C105.895 141.975 105.669 141.93 105.441 141.93V141.93Z" fill="white" stroke="#263238" stroke-linecap="round" stroke-linejoin="round"/>
<path d="M114.463 141.93H110.698C110.238 141.93 109.796 142.113 109.47 142.439C109.144 142.765 108.961 143.207 108.961 143.668V144.633C108.961 146.634 110.581 149.174 112.583 149.174C114.584 149.174 116.205 146.634 116.205 144.633V143.668C116.204 143.206 116.02 142.764 115.693 142.439C115.366 142.113 114.924 141.93 114.463 141.93V141.93Z" fill="white" stroke="#263238" stroke-linecap="round" stroke-linejoin="round"/>
<path d="M123.49 141.93H119.725C119.264 141.93 118.822 142.113 118.495 142.439C118.168 142.764 117.984 143.206 117.983 143.668V144.633C117.983 146.634 119.603 149.174 121.605 149.174C123.606 149.174 125.227 146.634 125.227 144.633V143.668C125.227 143.207 125.044 142.765 124.718 142.439C124.392 142.113 123.95 141.93 123.49 141.93Z" fill="white" stroke="#263238" stroke-linecap="round" stroke-linejoin="round"/>
<path d="M132.512 141.93H128.748C128.287 141.93 127.845 142.113 127.519 142.439C127.193 142.765 127.01 143.207 127.01 143.668V144.633C127.01 146.634 128.631 149.174 130.627 149.174C132.624 149.174 134.249 146.634 134.249 144.633V143.668C134.249 143.207 134.066 142.765 133.74 142.439C133.415 142.113 132.973 141.93 132.512 141.93V141.93Z" fill="white" stroke="#263238" stroke-linecap="round" stroke-linejoin="round"/>
<path d="M141.534 141.93H137.77C137.309 141.93 136.867 142.113 136.541 142.439C136.215 142.765 136.032 143.207 136.032 143.668V144.633C136.032 146.634 137.653 149.174 139.654 149.174C141.656 149.174 143.271 146.634 143.271 144.633V143.668C143.271 143.207 143.088 142.765 142.762 142.439C142.437 142.113 141.995 141.93 141.534 141.93V141.93Z" fill="white" stroke="#263238" stroke-linecap="round" stroke-linejoin="round"/>
<path d="M150.556 141.93H146.812C146.584 141.93 146.358 141.975 146.147 142.062C145.936 142.15 145.745 142.278 145.584 142.439C145.422 142.6 145.294 142.792 145.207 143.003C145.12 143.213 145.075 143.439 145.075 143.668V144.633C145.075 146.634 146.695 149.174 148.697 149.174C150.698 149.174 152.319 146.634 152.319 144.633V143.668C152.318 143.437 152.272 143.21 152.183 142.998C152.094 142.785 151.963 142.593 151.799 142.431C151.636 142.27 151.441 142.142 151.228 142.056C151.014 141.97 150.786 141.927 150.556 141.93V141.93Z" fill="white" stroke="#263238" stroke-linecap="round" stroke-linejoin="round"/>
<path d="M159.583 141.93H155.819C155.358 141.93 154.915 142.113 154.589 142.439C154.262 142.764 154.078 143.206 154.077 143.668V144.633C154.077 146.634 155.697 149.174 157.699 149.174C159.7 149.174 161.321 146.634 161.321 144.633V143.668C161.321 143.207 161.138 142.765 160.812 142.439C160.486 142.113 160.044 141.93 159.583 141.93V141.93Z" fill="white" stroke="#263238" stroke-linecap="round" stroke-linejoin="round"/>
<path d="M168.605 141.93H164.841C164.38 141.93 163.938 142.113 163.612 142.439C163.287 142.765 163.104 143.207 163.104 143.668V144.633C163.104 146.634 164.724 149.174 166.72 149.174C168.717 149.174 170.342 146.634 170.342 144.633V143.668C170.342 143.207 170.159 142.765 169.834 142.439C169.508 142.113 169.066 141.93 168.605 141.93Z" fill="white" stroke="#263238" stroke-linecap="round" stroke-linejoin="round"/>
<path d="M177.627 141.93H173.863C173.402 141.93 172.96 142.113 172.634 142.439C172.309 142.765 172.125 143.207 172.125 143.668V144.633C172.125 146.634 173.746 149.174 175.748 149.174C177.749 149.174 179.364 146.634 179.364 144.633V143.668C179.364 143.207 179.181 142.765 178.856 142.439C178.53 142.113 178.088 141.93 177.627 141.93V141.93Z" fill="white" stroke="#263238" stroke-linecap="round" stroke-linejoin="round"/>
<path d="M73.8582 132.679H70.1041C69.6433 132.679 69.2014 132.863 68.8756 133.188C68.5497 133.514 68.3667 133.956 68.3667 134.417V135.382C68.3667 137.378 69.9872 139.924 71.9887 139.924C73.9903 139.924 75.6057 137.384 75.6057 135.382V134.417C75.6057 134.188 75.5604 133.961 75.4725 133.75C75.3845 133.538 75.2557 133.346 75.0932 133.185C74.9308 133.023 74.7381 132.896 74.5262 132.809C74.3142 132.722 74.0872 132.678 73.8582 132.679V132.679Z" fill="white" stroke="#263238" stroke-linecap="round" stroke-linejoin="round"/>
<path d="M82.8801 132.679H79.1158C78.655 132.679 78.2131 132.862 77.8873 133.188C77.5615 133.514 77.3784 133.956 77.3784 134.417V135.382C77.3784 137.378 78.9989 139.924 81.0005 139.924C83.002 139.924 84.6225 137.384 84.6225 135.382V134.417C84.6212 133.956 84.437 133.514 84.1104 133.188C83.7837 132.862 83.3413 132.679 82.8801 132.679V132.679Z" fill="white" stroke="#263238" stroke-linecap="round" stroke-linejoin="round"/>
<path d="M91.9076 132.679H88.1433C87.6821 132.679 87.2396 132.862 86.913 133.188C86.5864 133.514 86.4022 133.956 86.4009 134.417V135.382C86.4009 137.378 88.0265 139.924 90.0229 139.924C92.0194 139.924 93.645 137.384 93.645 135.382V134.417C93.645 133.956 93.4619 133.514 93.1361 133.188C92.8103 132.862 92.3684 132.679 91.9076 132.679V132.679Z" fill="white" stroke="#263238" stroke-linecap="round" stroke-linejoin="round"/>
<path d="M100.929 132.679H97.1651C96.7043 132.679 96.2624 132.862 95.9366 133.188C95.6108 133.514 95.4277 133.956 95.4277 134.417V135.382C95.4277 137.378 97.0483 139.924 99.0447 139.924C101.041 139.924 102.667 137.384 102.667 135.382V134.417C102.667 134.189 102.622 133.963 102.534 133.752C102.447 133.541 102.319 133.35 102.158 133.188C101.997 133.027 101.805 132.899 101.594 132.812C101.383 132.724 101.158 132.679 100.929 132.679V132.679Z" fill="white" stroke="#263238" stroke-linecap="round" stroke-linejoin="round"/>
<path d="M109.951 132.679H106.172C105.711 132.679 105.269 132.862 104.943 133.188C104.618 133.514 104.435 133.956 104.435 134.417V135.382C104.435 137.378 106.055 139.924 108.057 139.924C110.058 139.924 111.674 137.384 111.674 135.382V134.417C111.674 133.959 111.493 133.519 111.17 133.194C110.848 132.868 110.41 132.683 109.951 132.679V132.679Z" fill="white" stroke="#263238" stroke-linecap="round" stroke-linejoin="round"/>
<path d="M118.974 132.679H115.21C114.749 132.679 114.307 132.862 113.981 133.188C113.655 133.514 113.472 133.956 113.472 134.417V135.382C113.472 137.378 115.093 139.924 117.094 139.924C119.096 139.924 120.716 137.384 120.716 135.382V134.417C120.715 133.956 120.531 133.514 120.204 133.188C119.877 132.862 119.435 132.679 118.974 132.679V132.679Z" fill="white" stroke="#263238" stroke-linecap="round" stroke-linejoin="round"/>
<path d="M128.016 132.679H124.252C123.79 132.679 123.348 132.862 123.021 133.188C122.695 133.514 122.511 133.956 122.509 134.417V135.382C122.509 137.378 124.135 139.924 126.131 139.924C128.128 139.924 129.753 137.384 129.753 135.382V134.417C129.753 133.956 129.57 133.514 129.244 133.188C128.919 132.862 128.477 132.679 128.016 132.679V132.679Z" fill="white" stroke="#263238" stroke-linecap="round" stroke-linejoin="round"/>
<path d="M137.023 132.679H133.259C132.798 132.679 132.356 132.862 132.03 133.188C131.705 133.514 131.521 133.956 131.521 134.417V135.382C131.521 137.378 133.142 139.924 135.138 139.924C137.135 139.924 138.76 137.384 138.76 135.382V134.417C138.76 133.956 138.577 133.514 138.252 133.188C137.926 132.862 137.484 132.679 137.023 132.679Z" fill="white" stroke="#263238" stroke-linecap="round" stroke-linejoin="round"/>
<path d="M146.045 132.679H142.281C141.82 132.679 141.378 132.862 141.052 133.188C140.726 133.514 140.543 133.956 140.543 134.417V135.382C140.543 137.378 142.164 139.924 144.166 139.924C146.167 139.924 147.783 137.384 147.783 135.382V134.417C147.783 133.956 147.599 133.514 147.274 133.188C146.948 132.862 146.506 132.679 146.045 132.679Z" fill="white" stroke="#263238" stroke-linecap="round" stroke-linejoin="round"/>
<path d="M155.067 132.679H151.303C150.842 132.679 150.4 132.862 150.074 133.188C149.748 133.514 149.565 133.956 149.565 134.417V135.382C149.565 137.378 151.186 139.924 153.187 139.924C155.189 139.924 156.809 137.384 156.809 135.382V134.417C156.808 133.956 156.624 133.514 156.297 133.188C155.971 132.862 155.528 132.679 155.067 132.679V132.679Z" fill="white" stroke="#263238" stroke-linecap="round" stroke-linejoin="round"/>
<path d="M164.084 132.679H160.32C159.858 132.679 159.416 132.862 159.089 133.188C158.763 133.514 158.578 133.956 158.577 134.417V135.382C158.577 137.378 160.203 139.924 162.199 139.924C164.196 139.924 165.821 137.384 165.821 135.382V134.417C165.821 133.956 165.638 133.514 165.312 133.188C164.987 132.862 164.545 132.679 164.084 132.679Z" fill="white" stroke="#263238" stroke-linecap="round" stroke-linejoin="round"/>
<path d="M173.116 132.68H169.352C168.896 132.686 168.46 132.872 168.14 133.197C167.82 133.522 167.64 133.96 167.64 134.417V135.382C167.64 137.379 169.261 139.924 171.257 139.924C173.254 139.924 174.879 137.384 174.879 135.382V134.417C174.879 134.187 174.833 133.959 174.744 133.746C174.656 133.534 174.525 133.341 174.361 133.179C174.197 133.018 174.003 132.89 173.789 132.804C173.575 132.719 173.347 132.676 173.116 132.68V132.68Z" fill="white" stroke="#263238" stroke-linecap="round" stroke-linejoin="round"/>
<path d="M182.138 132.679H178.374C177.913 132.679 177.471 132.862 177.146 133.188C176.82 133.514 176.637 133.956 176.637 134.417V135.382C176.637 137.378 178.257 139.924 180.259 139.924C182.26 139.924 183.876 137.384 183.876 135.382V134.417C183.876 133.956 183.693 133.514 183.367 133.188C183.041 132.862 182.599 132.679 182.138 132.679V132.679Z" fill="white" stroke="#263238" stroke-linecap="round" stroke-linejoin="round"/>
<path d="M160.579 151.562H91.6536C90.753 151.562 90.0229 152.292 90.0229 153.192V158.14C90.0229 159.041 90.753 159.771 91.6536 159.771H160.579C161.48 159.771 162.21 159.041 162.21 158.14V153.192C162.21 152.292 161.48 151.562 160.579 151.562Z" fill="white" stroke="#263238" stroke-linecap="round" stroke-linejoin="round"/>
<path d="M169.809 152.044H166.045C165.584 152.044 165.142 152.227 164.816 152.553C164.491 152.879 164.308 153.321 164.308 153.782V154.747C164.308 156.749 165.928 159.289 167.93 159.289C169.931 159.289 171.547 156.749 171.547 154.747V153.782C171.547 153.321 171.364 152.879 171.038 152.553C170.712 152.227 170.27 152.044 169.809 152.044Z" fill="white" stroke="#263238" stroke-linecap="round" stroke-linejoin="round"/>
<path d="M86.1872 152.044H82.4229C81.9621 152.044 81.5202 152.227 81.1944 152.553C80.8686 152.879 80.6855 153.321 80.6855 153.782V154.747C80.6855 156.749 82.3061 159.289 84.3076 159.289C86.3091 159.289 87.9296 156.749 87.9296 154.747V153.782C87.9283 153.321 87.7441 152.879 87.4175 152.553C87.0909 152.227 86.6484 152.044 86.1872 152.044V152.044Z" fill="white" stroke="#263238" stroke-linecap="round" stroke-linejoin="round"/>
<path opacity="0.2" d="M78.5776 125.567C78.76 125.568 78.9419 125.585 79.1212 125.618C79.1212 125.583 79.1212 125.547 79.1212 125.512V124.546C79.1199 124.347 79.0395 124.155 78.8977 124.014C78.7559 123.874 78.5641 123.795 78.3643 123.795H74.6C74.401 123.796 74.2105 123.876 74.0698 124.016C73.9291 124.157 73.8495 124.347 73.8481 124.546V125.512C73.8481 126.898 74.8641 128.646 76.063 128.996C75.6922 127.457 76.5253 125.567 78.5776 125.567Z" fill="black"/>
<path opacity="0.2" d="M87.8026 125.308C87.9176 125.301 88.033 125.301 88.148 125.308V124.526C88.1467 124.327 88.0671 124.137 87.9264 123.996C87.7856 123.855 87.5952 123.776 87.3962 123.774H83.6319C83.4321 123.774 83.2403 123.853 83.0985 123.994C82.9567 124.135 82.8763 124.326 82.875 124.526V125.491C82.875 127.015 84.079 128.92 85.415 129.047C84.8003 127.473 85.608 125.308 87.8026 125.308Z" fill="black"/>
<path opacity="0.2" d="M97.0943 125.176H97.1705V124.541C97.1705 124.342 97.0913 124.151 96.9503 124.01C96.8093 123.869 96.6181 123.789 96.4187 123.789H92.6544C92.4545 123.789 92.2628 123.868 92.121 124.009C91.9791 124.15 91.8988 124.341 91.8975 124.541V125.506C91.8975 127.056 93.1776 129.062 94.534 129.062C94.5999 129.067 94.6662 129.067 94.7321 129.062C94.0514 127.457 94.8388 125.176 97.0943 125.176Z" fill="black"/>
<path opacity="0.2" d="M105.542 124.917C105.754 124.911 105.965 124.928 106.172 124.968V124.526C106.172 124.327 106.093 124.136 105.952 123.995C105.811 123.854 105.62 123.774 105.42 123.774H101.656C101.457 123.774 101.265 123.854 101.124 123.995C100.984 124.136 100.904 124.327 100.904 124.526V125.491C100.904 126.944 102.022 128.793 103.282 129.047C102.418 127.452 103.165 124.917 105.542 124.917Z" fill="black"/>
<path opacity="0.2" d="M115.026 124.917H115.219V124.536C115.218 124.336 115.138 124.145 114.996 124.004C114.854 123.863 114.662 123.784 114.462 123.784H110.698C110.499 123.786 110.309 123.865 110.168 124.006C110.027 124.147 109.948 124.337 109.946 124.536V125.501C109.946 127.051 111.226 129.057 112.583 129.057C112.652 129.062 112.722 129.062 112.791 129.057C111.902 127.457 112.649 124.917 115.026 124.917Z" fill="black"/>
<path opacity="0.2" d="M124.125 124.968H124.242V124.526C124.24 124.327 124.161 124.137 124.02 123.996C123.879 123.855 123.689 123.776 123.49 123.774H119.726C119.526 123.774 119.334 123.853 119.192 123.994C119.05 124.135 118.97 124.326 118.969 124.526V125.491C118.969 127.041 120.249 129.047 121.605 129.047C121.688 129.055 121.771 129.055 121.854 129.047C121.021 127.447 121.778 124.968 124.125 124.968Z" fill="black"/>
<path opacity="0.2" d="M132.832 124.917C132.976 124.919 133.12 124.929 133.264 124.948V124.546C133.264 124.347 133.184 124.156 133.043 124.015C132.902 123.874 132.711 123.795 132.512 123.795H128.747C128.548 123.795 128.357 123.874 128.216 124.015C128.075 124.156 127.996 124.347 127.996 124.546V125.512C127.996 127.036 129.255 129.037 130.602 129.068C129.702 127.472 130.444 124.917 132.832 124.917Z" fill="black"/>
<path opacity="0.2" d="M142.286 125.049V124.541C142.286 124.342 142.206 124.151 142.065 124.01C141.924 123.869 141.733 123.789 141.534 123.789H137.769C137.57 123.789 137.379 123.869 137.238 124.01C137.097 124.151 137.018 124.342 137.018 124.541V125.506C137.018 127.056 138.293 129.062 139.654 129.062C139.79 129.06 139.926 129.038 140.055 128.996C139.324 127.432 140.071 125.12 142.286 125.049Z" fill="black"/>
<path opacity="0.2" d="M150.571 124.851C150.822 124.851 151.071 124.883 151.313 124.948V124.546C151.311 124.347 151.231 124.155 151.089 124.014C150.948 123.874 150.756 123.795 150.556 123.795H146.812C146.613 123.796 146.422 123.876 146.282 124.016C146.141 124.157 146.061 124.347 146.06 124.546V125.512C146.06 126.944 147.147 128.753 148.382 129.027C147.432 127.437 148.168 124.851 150.571 124.851Z" fill="black"/>
<path opacity="0.2" d="M159.797 124.851C159.977 124.852 160.157 124.869 160.335 124.902V124.546C160.334 124.347 160.254 124.157 160.113 124.016C159.973 123.876 159.782 123.796 159.583 123.795H155.819C155.619 123.795 155.427 123.874 155.286 124.014C155.144 124.155 155.063 124.347 155.062 124.546V125.512C155.062 127.036 156.281 128.971 157.602 129.068C156.647 127.472 157.379 124.851 159.797 124.851Z" fill="black"/>
<path opacity="0.2" d="M168.961 125.11C169.094 125.112 169.226 125.123 169.357 125.141V124.546C169.357 124.347 169.278 124.156 169.137 124.015C168.996 123.874 168.805 123.795 168.605 123.795H164.841C164.742 123.795 164.645 123.814 164.553 123.852C164.462 123.89 164.379 123.945 164.31 124.015C164.24 124.085 164.184 124.167 164.147 124.259C164.109 124.35 164.089 124.448 164.089 124.546V125.512C164.089 127.036 165.309 128.966 166.629 129.068C165.893 127.462 166.67 125.11 168.961 125.11Z" fill="black"/>
<path opacity="0.2" d="M178.379 124.993V124.546C178.379 124.347 178.3 124.156 178.159 124.015C178.018 123.874 177.827 123.795 177.627 123.795H173.863C173.664 123.795 173.473 123.874 173.332 124.015C173.191 124.156 173.111 124.347 173.111 124.546V125.512C173.111 127.061 174.386 129.068 175.748 129.068C175.944 129.065 176.137 129.023 176.317 128.946C175.595 127.412 176.276 125.166 178.379 124.993Z" fill="black"/>
<path opacity="0.2" d="M78.8365 143.764C78.933 143.759 79.0296 143.759 79.1261 143.764V143.657C79.1247 143.457 79.0444 143.266 78.9026 143.125C78.7608 142.985 78.569 142.906 78.3691 142.906H74.6049C74.4059 142.907 74.2154 142.986 74.0747 143.127C73.934 143.268 73.8544 143.458 73.853 143.657V144.623C73.853 146.172 75.1332 148.179 76.4895 148.179C76.5834 148.176 76.6768 148.166 76.7689 148.148C75.631 146.604 76.3219 143.764 78.8365 143.764Z" fill="black"/>
<path opacity="0.2" d="M87.6756 143.764C87.8339 143.765 87.992 143.778 88.148 143.805V143.673C88.1467 143.474 88.0671 143.283 87.9264 143.142C87.7856 143.002 87.5952 142.922 87.3962 142.921H83.6319C83.4321 142.921 83.2403 143 83.0985 143.141C82.9567 143.282 82.8763 143.473 82.875 143.673V144.638C82.875 146.187 84.1552 148.194 85.5115 148.194H85.6233C84.46 146.629 85.1458 143.764 87.6756 143.764Z" fill="black"/>
<path opacity="0.2" d="M96.642 143.891C96.8123 143.891 96.9823 143.907 97.15 143.937V143.667C97.15 143.569 97.1305 143.471 97.0928 143.38C97.055 143.289 96.9996 143.206 96.9298 143.136C96.86 143.066 96.7771 143.011 96.6859 142.973C96.5947 142.935 96.4969 142.916 96.3982 142.916H92.6339C92.434 142.916 92.2422 142.995 92.1004 143.136C91.9586 143.276 91.8783 143.468 91.877 143.667V144.633C91.877 146.157 93.1368 148.153 94.483 148.189C93.4721 146.609 94.1782 143.891 96.642 143.891Z" fill="black"/>
<path opacity="0.2" d="M105.801 143.957C105.932 143.957 106.063 143.966 106.192 143.982V143.667C106.192 143.569 106.173 143.471 106.135 143.38C106.097 143.289 106.042 143.206 105.972 143.136C105.902 143.066 105.819 143.011 105.728 142.973C105.637 142.935 105.539 142.916 105.44 142.916H101.676C101.577 142.916 101.48 142.935 101.388 142.973C101.297 143.011 101.214 143.066 101.145 143.136C101.075 143.206 101.019 143.289 100.982 143.38C100.944 143.471 100.924 143.569 100.924 143.667V144.633C100.924 146.182 102.199 148.189 103.561 148.189H103.622C102.646 146.599 103.373 143.957 105.801 143.957Z" fill="black"/>
<path opacity="0.2" d="M114.64 143.764C114.835 143.764 115.028 143.783 115.219 143.82V143.673C115.218 143.473 115.138 143.282 114.996 143.141C114.854 143 114.662 142.921 114.462 142.921H110.698C110.499 142.922 110.309 143.002 110.168 143.142C110.027 143.283 109.948 143.474 109.946 143.673V144.638C109.946 146.187 111.226 148.194 112.583 148.194C111.425 146.639 112.105 143.764 114.64 143.764Z" fill="black"/>
<path opacity="0.2" d="M123.8 143.825C123.948 143.826 124.096 143.838 124.242 143.861V143.667C124.24 143.469 124.161 143.278 124.02 143.137C123.879 142.997 123.689 142.917 123.49 142.916H119.726C119.526 142.916 119.334 142.995 119.192 143.136C119.05 143.276 118.97 143.468 118.969 143.667V144.633C118.969 146.182 120.249 148.189 121.605 148.189H121.702C120.605 146.614 121.306 143.825 123.8 143.825Z" fill="black"/>
<path opacity="0.2" d="M133.157 144.018H133.264V143.662C133.264 143.463 133.184 143.272 133.043 143.131C132.902 142.99 132.711 142.911 132.512 142.911H128.747C128.548 142.911 128.357 142.99 128.216 143.131C128.075 143.272 127.996 143.463 127.996 143.662V144.628C127.996 146.177 129.271 148.184 130.627 148.184C130.726 148.182 130.825 148.17 130.922 148.148C130.048 146.563 130.774 144.018 133.157 144.018Z" fill="black"/>
<path opacity="0.2" d="M142.24 143.825H142.27V143.667C142.27 143.569 142.251 143.471 142.213 143.38C142.175 143.289 142.12 143.206 142.05 143.136C141.98 143.066 141.897 143.011 141.806 142.973C141.715 142.935 141.617 142.916 141.518 142.916H137.769C137.671 142.916 137.573 142.935 137.482 142.973C137.39 143.011 137.308 143.066 137.238 143.136C137.168 143.206 137.113 143.289 137.075 143.38C137.037 143.471 137.018 143.569 137.018 143.667V144.633C137.018 146.182 138.293 148.189 139.654 148.189C139.81 148.186 139.964 148.159 140.111 148.107C139.08 146.533 139.796 143.825 142.24 143.825Z" fill="black"/>
<path opacity="0.2" d="M151.023 143.632H151.308C151.3 143.437 151.217 143.253 151.077 143.118C150.937 142.983 150.751 142.907 150.556 142.906H146.812C146.613 142.907 146.422 142.986 146.282 143.127C146.141 143.268 146.061 143.458 146.06 143.657V144.623C146.06 146.172 147.34 148.179 148.697 148.179C148.82 148.175 148.943 148.156 149.062 148.123C147.787 146.609 148.448 143.632 151.023 143.632Z" fill="black"/>
<path opacity="0.2" d="M160.32 143.764V143.673C160.319 143.474 160.239 143.283 160.098 143.142C159.958 143.002 159.767 142.922 159.568 142.921H155.804C155.604 142.921 155.412 143 155.27 143.141C155.129 143.282 155.048 143.473 155.047 143.673V144.638C155.047 146.187 156.327 148.194 157.683 148.194C157.857 148.191 158.028 148.16 158.191 148.102C157.13 146.528 157.831 143.764 160.32 143.764Z" fill="black"/>
<path opacity="0.2" d="M169.164 143.764H169.367V143.662C169.367 143.564 169.348 143.466 169.31 143.375C169.272 143.284 169.217 143.201 169.147 143.131C169.077 143.061 168.994 143.006 168.903 142.968C168.812 142.93 168.714 142.911 168.615 142.911H164.851C164.652 142.911 164.46 142.99 164.319 143.131C164.178 143.272 164.099 143.463 164.099 143.662V144.628C164.099 146.177 165.374 148.184 166.731 148.184C166.851 148.182 166.97 148.165 167.086 148.133C165.953 146.578 166.649 143.764 169.164 143.764Z" fill="black"/>
<path opacity="0.2" d="M178.054 144.15C178.166 144.15 178.278 144.15 178.379 144.15V143.642C178.379 143.443 178.3 143.251 178.159 143.11C178.018 142.969 177.827 142.89 177.627 142.89H173.863C173.664 142.89 173.473 142.969 173.332 143.11C173.191 143.251 173.111 143.443 173.111 143.642V144.607C173.111 146.157 174.386 148.163 175.748 148.163C174.96 146.589 175.722 144.15 178.054 144.15Z" fill="black"/>
<path opacity="0.2" d="M74.5489 134.666H74.6149V134.417C74.6136 134.217 74.5333 134.026 74.3914 133.885C74.2496 133.744 74.0579 133.665 73.858 133.665H70.1039C69.9045 133.665 69.7133 133.744 69.5723 133.885C69.4313 134.026 69.3521 134.217 69.3521 134.417V135.382C69.3521 136.931 70.6271 138.938 71.9886 138.938C72.1194 138.935 72.2492 138.914 72.3747 138.877C71.3993 137.292 72.1359 134.666 74.5489 134.666Z" fill="black"/>
<path opacity="0.2" d="M83.3833 134.666H83.6373V134.407C83.636 134.207 83.5556 134.016 83.4138 133.875C83.272 133.734 83.0802 133.655 82.8804 133.655H79.1161C78.9171 133.656 78.7267 133.736 78.5859 133.876C78.4452 134.017 78.3656 134.208 78.3643 134.407V135.372C78.3643 136.921 79.6444 138.928 81.0008 138.928C81.0752 138.933 81.1499 138.933 81.2243 138.928C80.2235 137.338 80.9449 134.666 83.3833 134.666Z" fill="black"/>
<path opacity="0.2" d="M92.6135 134.666H92.6592V134.417C92.6578 134.218 92.5782 134.027 92.4375 133.887C92.2968 133.746 92.1063 133.666 91.9073 133.665H88.1431C88.0432 133.664 87.9441 133.682 87.8515 133.719C87.7588 133.756 87.6744 133.811 87.6031 133.881C87.5318 133.951 87.475 134.034 87.436 134.126C87.397 134.218 87.3766 134.317 87.376 134.417V135.382C87.376 136.931 88.6561 138.938 90.0125 138.938C90.1488 138.936 90.2841 138.914 90.4138 138.872C89.4639 137.292 90.1903 134.666 92.6135 134.666Z" fill="black"/>
<path opacity="0.2" d="M101.448 134.62H101.682V134.427C101.682 134.228 101.602 134.036 101.461 133.895C101.32 133.754 101.129 133.675 100.93 133.675H97.1654C96.966 133.675 96.7748 133.754 96.6338 133.895C96.4928 134.036 96.4136 134.228 96.4136 134.427V135.392C96.4136 136.942 97.6887 138.948 99.045 138.948C99.1372 138.946 99.229 138.936 99.3193 138.918C98.2678 137.338 98.979 134.62 101.448 134.62Z" fill="black"/>
<path opacity="0.2" d="M110.236 134.666C110.398 134.666 110.559 134.679 110.719 134.706V134.417C110.719 134.217 110.64 134.026 110.499 133.885C110.358 133.744 110.166 133.665 109.967 133.665H106.172C105.973 133.665 105.782 133.744 105.641 133.885C105.5 134.026 105.42 134.217 105.42 134.417V135.382C105.42 136.931 106.695 138.938 108.057 138.938C107.051 137.358 107.767 134.666 110.236 134.666Z" fill="black"/>
<path opacity="0.2" d="M119.319 134.341C119.455 134.341 119.591 134.35 119.725 134.366C119.711 134.176 119.626 133.998 119.487 133.868C119.347 133.738 119.164 133.666 118.974 133.665H115.209C115.01 133.666 114.82 133.746 114.679 133.887C114.538 134.027 114.459 134.218 114.458 134.417V135.382C114.458 136.931 115.738 138.938 117.094 138.938C117.192 138.936 117.289 138.924 117.384 138.903C116.063 137.394 116.708 134.341 119.319 134.341Z" fill="black"/>
<path opacity="0.2" d="M128.412 134.727C128.529 134.727 128.646 134.727 128.753 134.727V134.397C128.751 134.198 128.672 134.007 128.531 133.866C128.39 133.726 128.2 133.646 128.001 133.645H124.236C124.037 133.645 123.845 133.724 123.703 133.865C123.561 134.005 123.481 134.197 123.479 134.397V135.362C123.479 136.911 124.76 138.918 126.116 138.918H126.218C125.268 137.343 125.984 134.727 128.412 134.727Z" fill="black"/>
<path opacity="0.2" d="M137.775 134.417C137.775 134.217 137.696 134.026 137.555 133.885C137.414 133.744 137.222 133.665 137.023 133.665H133.259C133.16 133.665 133.062 133.684 132.971 133.722C132.88 133.76 132.797 133.815 132.727 133.885C132.657 133.955 132.602 134.038 132.564 134.129C132.526 134.22 132.507 134.318 132.507 134.417V135.382C132.507 136.931 133.782 138.938 135.138 138.938C135.409 138.931 135.674 138.858 135.91 138.725C134.884 137.211 135.504 134.62 137.775 134.417Z" fill="black"/>
<path opacity="0.2" d="M146.812 134.62V134.427C146.812 134.228 146.733 134.036 146.592 133.895C146.451 133.754 146.259 133.675 146.06 133.675H142.296C142.096 133.675 141.905 133.754 141.764 133.895C141.623 134.036 141.544 134.228 141.544 134.427V135.392C141.544 136.942 142.819 138.948 144.18 138.948C144.399 138.945 144.613 138.894 144.81 138.801C143.881 137.251 144.546 134.747 146.812 134.62Z" fill="black"/>
<path opacity="0.2" d="M155.509 134.468C155.616 134.468 155.722 134.468 155.824 134.468V134.402C155.822 134.202 155.742 134.011 155.6 133.87C155.459 133.729 155.267 133.65 155.067 133.65H151.303C151.104 133.651 150.913 133.731 150.772 133.871C150.632 134.012 150.552 134.203 150.551 134.402V135.367C150.551 136.916 151.831 138.923 153.187 138.923C153.283 138.921 153.379 138.909 153.472 138.887C152.293 137.358 152.969 134.468 155.509 134.468Z" fill="black"/>
<path opacity="0.2" d="M164.846 134.798V134.417C164.845 134.218 164.765 134.027 164.625 133.887C164.484 133.746 164.293 133.666 164.094 133.665H160.33C160.13 133.665 159.939 133.744 159.797 133.885C159.655 134.026 159.575 134.217 159.573 134.417V135.382C159.573 136.931 160.853 138.938 162.21 138.938C162.363 138.936 162.516 138.91 162.662 138.862C161.834 137.287 162.56 134.859 164.846 134.798Z" fill="black"/>
<path opacity="0.2" d="M173.441 134.534C173.584 134.536 173.726 134.546 173.868 134.564V134.417C173.868 134.217 173.789 134.026 173.648 133.885C173.507 133.744 173.316 133.665 173.116 133.665H169.352C169.253 133.665 169.155 133.684 169.064 133.722C168.973 133.76 168.89 133.815 168.82 133.885C168.75 133.955 168.695 134.038 168.657 134.129C168.62 134.22 168.6 134.318 168.6 134.417V135.382C168.6 136.931 169.875 138.938 171.232 138.938C171.279 138.941 171.326 138.941 171.374 138.938C170.236 137.368 170.927 134.534 173.441 134.534Z" fill="black"/>
<path opacity="0.2" d="M182.539 134.925C182.656 134.917 182.773 134.917 182.89 134.925V134.417C182.89 134.217 182.811 134.026 182.67 133.885C182.529 133.744 182.338 133.665 182.138 133.665H178.374C178.175 133.665 177.983 133.744 177.842 133.885C177.701 134.026 177.622 134.217 177.622 134.417V135.382C177.622 136.906 178.887 138.938 180.243 138.938C179.451 137.338 180.218 134.925 182.539 134.925Z" fill="black"/>
<path opacity="0.2" d="M161.224 158.171V153.162C161.224 152.823 160.949 152.547 160.609 152.547H91.623C91.2836 152.547 91.0084 152.823 91.0084 153.162V158.171C91.0084 158.51 91.2836 158.786 91.623 158.786H160.609C160.949 158.786 161.224 158.51 161.224 158.171Z" fill="black"/>
<path opacity="0.2" d="M170.561 154.285V153.777C170.561 153.678 170.541 153.58 170.504 153.489C170.466 153.398 170.411 153.315 170.341 153.245C170.271 153.175 170.188 153.12 170.097 153.082C170.006 153.044 169.908 153.025 169.809 153.025H166.045C165.946 153.025 165.848 153.044 165.757 153.082C165.666 153.12 165.583 153.175 165.513 153.245C165.443 153.315 165.388 153.398 165.35 153.489C165.312 153.58 165.293 153.678 165.293 153.777V154.742C165.293 156.291 166.568 158.298 167.929 158.298C168.043 158.295 168.155 158.28 168.265 158.252C167.513 156.667 168.28 154.3 170.561 154.285Z" fill="black"/>
<path opacity="0.2" d="M86.5025 153.96C86.6505 153.961 86.7982 153.973 86.9444 153.995V153.782C86.9431 153.582 86.8627 153.391 86.7209 153.25C86.5791 153.109 86.3874 153.03 86.1875 153.03H82.4232C82.2242 153.031 82.0338 153.111 81.8931 153.252C81.7524 153.392 81.6727 153.583 81.6714 153.782V154.747C81.6714 156.296 82.9515 158.303 84.3079 158.303H84.3943C83.3122 156.728 84.0234 153.96 86.5025 153.96Z" fill="black"/>
<path opacity="0.2" d="M63.8557 48.006H188.377C189.232 48.006 190.053 48.3458 190.658 48.9508C191.263 49.5558 191.602 50.3762 191.602 51.2318V79.6798H60.6299V51.2318C60.6299 50.3762 60.9697 49.5558 61.5747 48.9508C62.1797 48.3458 63.0001 48.006 63.8557 48.006V48.006Z" fill="black"/>
<path d="M178.196 53.3705H74.0564C73.188 46.1586 71.6575 39.042 69.4844 32.1107H182.789C180.581 39.0341 179.044 46.1533 178.196 53.3705V53.3705Z" fill="white"/>
<path opacity="0.2" d="M179.222 46.5176C178.465 50.6527 178.206 53.3705 178.206 53.3705H74.0663C74.0663 53.3705 73.8021 50.7035 73.0249 46.5176H179.222Z" fill="black"/>
<path d="M178.196 53.3705H74.0564C73.188 46.1586 71.6575 39.042 69.4844 32.1107H182.789C180.581 39.0341 179.044 46.1533 178.196 53.3705V53.3705Z" stroke="#263238" stroke-linecap="round" stroke-linejoin="round"/>
<path d="M176.779 71.2725H74.6152V113.304H176.779V71.2725Z" fill="#263238"/>
<g opacity="0.4">
<path opacity="0.4" d="M123.149 109.586L123.688 109.611C124.365 99.1295 125.043 88.6308 125.72 78.1152C124.856 88.6342 123.999 99.1244 123.149 109.586Z" fill="white"/>
<path opacity="0.4" d="M121.412 109.454L121.951 109.499C123.126 99.0854 124.299 88.6257 125.471 78.1202C124.12 88.6325 122.767 99.0769 121.412 109.454Z" fill="white"/>
<path opacity="0.4" d="M119.72 109.261C119.898 109.261 120.081 109.301 120.259 109.322C121.925 99.0194 123.601 88.6173 125.288 78.1152C123.425 88.6274 121.569 99.0093 119.72 109.261Z" fill="white"/>
<path opacity="0.4" d="M118.008 109.002L118.552 109.088C120.713 98.928 122.89 88.5986 125.085 78.1C122.714 88.6088 120.355 98.9093 118.008 109.002Z" fill="white"/>
<path opacity="0.4" d="M116.301 108.682L116.85 108.793C119.492 98.8264 122.169 88.5986 124.881 78.1101C121.996 88.602 119.136 98.7925 116.301 108.682Z" fill="white"/>
<path opacity="0.4" d="M114.604 108.295L115.153 108.433C118.267 98.6891 121.468 88.585 124.678 78.105C121.28 88.585 117.891 98.6434 114.604 108.295Z" fill="white"/>
<path opacity="0.4" d="M112.913 107.838L113.467 108.001C117.023 98.5317 120.746 88.5647 124.475 78.0948C120.558 88.5647 116.657 98.4758 112.913 107.838Z" fill="white"/>
<path opacity="0.4" d="M111.252 107.32L111.806 107.498C115.824 98.354 120.04 88.5445 124.287 78.0898C119.832 88.5445 115.423 98.2828 111.252 107.32Z" fill="white"/>
<path opacity="0.4" d="M109.565 106.726L110.124 106.929C114.574 98.1304 119.304 88.519 124.069 78.0796C119.106 88.519 114.178 98.044 109.565 106.726Z" fill="white"/>
<path opacity="0.4" d="M107.919 106.055L108.478 106.289C113.335 97.8865 118.577 88.5089 123.866 78.0695C118.364 88.4885 112.933 97.8154 107.919 106.055Z" fill="white"/>
<path opacity="0.4" d="M106.289 105.303L106.847 105.573C112.09 97.6224 117.846 88.453 123.662 78.0593C117.637 88.453 111.684 97.536 106.289 105.303Z" fill="white"/>
<path opacity="0.4" d="M104.684 104.47L105.242 104.775C110.83 97.3227 117.114 88.4123 123.459 78.0441C117.672 87.1786 111.405 95.9997 104.684 104.47V104.47Z" fill="white"/>
<path opacity="0.4" d="M103.124 103.556C103.307 103.673 103.5 103.779 103.688 103.891C110.738 95.6793 117.28 87.0441 123.276 78.0339C117.14 86.9841 110.407 95.5107 103.124 103.556Z" fill="white"/>
<path opacity="0.4" d="M101.564 102.545L102.118 102.926C109.726 95.179 116.725 86.857 123.053 78.0339C116.593 86.7951 109.405 94.9946 101.564 102.545V102.545Z" fill="white"/>
<path opacity="0.4" d="M122.849 78.0034C114.676 88.2396 106.68 96.0476 100.076 101.443L100.619 101.864C108.772 94.6368 116.216 86.6469 122.849 78.0034V78.0034Z" fill="white"/>
<path opacity="0.4" d="M122.646 77.9882C113.939 88.1482 105.43 95.5751 98.6279 100.249L99.1664 100.711C105.877 95.7428 114.168 88.1736 122.646 77.9882Z" fill="white"/>
<path opacity="0.4" d="M122.428 77.9729C113.198 88.0567 104.206 95.0468 97.2515 98.9482C97.4191 99.1209 97.5867 99.2937 97.7595 99.4562C104.648 95.2398 113.441 88.0821 122.428 77.9729Z" fill="white"/>
<path opacity="0.4" d="M122.24 77.9526C112.507 87.9348 103.048 94.4626 95.9814 97.5614L96.4894 98.1152C103.485 94.676 112.73 87.9653 122.24 77.9526Z" fill="white"/>
<path opacity="0.4" d="M94.813 96.0781C94.9603 96.2813 95.1127 96.4845 95.2651 96.6826C102.352 94.0664 112.029 87.8231 122.042 77.9374C111.826 87.7773 101.94 93.8175 94.813 96.0781Z" fill="white"/>
<path opacity="0.4" d="M93.7769 94.5338C93.9089 94.7471 94.0461 94.9605 94.1832 95.1739C101.295 93.3857 111.394 87.6402 121.839 77.9019C111.191 87.5843 100.914 93.1165 93.7769 94.5338Z" fill="white"/>
<path opacity="0.4" d="M92.8926 92.964C93.0043 93.1875 93.1212 93.4059 93.238 93.6295C100.35 92.6643 110.795 87.4268 121.635 77.9069C110.617 87.3353 100.005 92.3544 92.8926 92.964Z" fill="white"/>
<path opacity="0.4" d="M92.1714 91.3587C92.2628 91.5823 92.3593 91.8109 92.4559 92.0344C99.5272 91.8617 110.236 87.1423 121.412 77.8713C110.109 87.0458 99.2326 91.5365 92.1714 91.3587Z" fill="white"/>
<path opacity="0.4" d="M124.872 109.657H125.405C125.568 99.1582 125.737 88.646 125.913 78.1202C125.557 88.6392 125.21 99.1514 124.872 109.657Z" fill="white"/>
<path opacity="0.4" d="M126.588 109.667H127.127C126.788 99.1683 126.45 88.6561 126.111 78.1304L126.588 109.667Z" fill="white"/>
<path opacity="0.4" d="M128.305 109.621H128.844C127.997 99.1566 127.15 88.6579 126.304 78.1254C126.971 88.6444 127.638 99.143 128.305 109.621Z" fill="white"/>
<path opacity="0.4" d="M130.048 109.515L130.586 109.474C129.232 99.0871 127.877 88.6358 126.522 78.1202C127.687 88.6358 128.863 99.1006 130.048 109.515Z" fill="white"/>
<path opacity="0.4" d="M131.739 109.352L132.278 109.286C130.436 99.0211 128.573 88.6308 126.69 78.1152C128.387 88.6308 130.07 99.0431 131.739 109.352Z" fill="white"/>
<path opacity="0.4" d="M133.451 109.124L133.995 109.042C131.658 98.9331 129.296 88.6241 126.908 78.1152C129.103 88.6275 131.284 98.9636 133.451 109.124Z" fill="white"/>
<path opacity="0.4" d="M135.159 108.834L135.702 108.732C132.881 98.823 130.018 88.6156 127.112 78.1101C129.814 88.6156 132.497 98.8568 135.159 108.834Z" fill="white"/>
<path opacity="0.4" d="M136.855 108.478L137.409 108.351C134.117 98.6993 130.724 88.6053 127.315 78.105C130.536 88.607 133.716 98.7315 136.855 108.478Z" fill="white"/>
<path opacity="0.4" d="M138.552 108.062L139.1 107.904C135.351 98.5215 131.445 88.6003 127.518 78.0948C131.252 88.5901 134.97 98.552 138.552 108.062Z" fill="white"/>
<path opacity="0.4" d="M140.233 107.569L140.792 107.386C136.591 98.3336 132.156 88.5902 127.721 78.0898C131.978 88.5699 136.205 98.3895 140.233 107.569Z" fill="white"/>
<path opacity="0.4" d="M141.904 107.005L142.463 106.797C137.84 98.1151 132.903 88.5495 127.924 78.0796C132.705 88.5495 137.444 98.1811 141.904 107.005Z" fill="white"/>
<path opacity="0.4" d="M143.56 106.37C143.748 106.289 143.941 106.218 144.124 106.136C139.095 97.8764 133.639 88.5241 128.127 78.0695C133.436 88.5241 138.684 97.9475 143.56 106.37Z" fill="white"/>
<path opacity="0.4" d="M145.202 105.664L145.766 105.395C140.355 97.6071 134.376 88.4987 128.331 78.0643C134.168 88.4885 139.939 97.6884 145.202 105.664Z" fill="white"/>
<path opacity="0.4" d="M146.812 104.866C147 104.77 147.188 104.663 147.371 104.562C140.624 96.0616 134.333 87.21 128.524 78.0441C134.904 88.4581 141.224 97.3938 146.812 104.866Z" fill="white"/>
<path opacity="0.4" d="M148.407 103.988L148.976 103.652C141.661 95.5778 134.9 87.0188 128.737 78.0339C134.756 87.0796 141.325 95.7472 148.407 103.988V103.988Z" fill="white"/>
<path opacity="0.4" d="M128.94 78.0187C135.294 86.883 142.323 95.2426 149.967 103.022L150.53 102.641C142.651 95.0589 135.428 86.8218 128.94 78.0187V78.0187Z" fill="white"/>
<path opacity="0.4" d="M129.144 78.0034C135.808 86.6884 143.293 94.7112 151.496 101.961C151.684 101.824 151.861 101.681 152.044 101.539C145.42 96.1441 137.363 88.3006 129.144 78.0034Z" fill="white"/>
<path opacity="0.4" d="M129.347 77.9882C137.881 88.2345 146.222 95.8342 152.953 100.802C153.136 100.65 153.324 100.498 153.502 100.34C146.675 95.6767 138.11 88.2294 129.347 77.9882Z" fill="white"/>
<path opacity="0.4" d="M129.54 77.9729C138.608 88.1329 147.447 95.3414 154.356 99.5527C154.534 99.3851 154.701 99.2073 154.864 99.0447C147.904 95.1484 138.847 88.1329 129.54 77.9729Z" fill="white"/>
<path opacity="0.4" d="M129.753 77.9526C139.339 88.0415 148.656 94.7827 155.661 98.1964L156.169 97.6376C149.103 94.5744 139.568 88.0212 129.753 77.9526Z" fill="white"/>
<path opacity="0.4" d="M156.916 96.7537C157.074 96.5505 157.221 96.3473 157.373 96.139C150.236 93.9292 140.259 87.8688 129.941 77.9374C140.04 87.9094 149.814 94.1731 156.916 96.7537Z" fill="white"/>
<path opacity="0.4" d="M158.018 95.2247L158.435 94.5744C151.287 93.2282 140.914 87.6809 130.154 77.9171C140.716 87.7367 150.876 93.4975 158.018 95.2247Z" fill="white"/>
<path opacity="0.4" d="M159.004 93.6447C159.126 93.4212 159.242 93.1977 159.359 92.9691C152.247 92.4611 141.523 87.437 130.403 77.8967C141.315 87.5182 151.892 92.7659 159.004 93.6447Z" fill="white"/>
<path opacity="0.4" d="M130.556 77.8713C141.854 87.249 152.704 91.9683 159.766 92.0395C159.867 91.8109 159.964 91.5823 160.06 91.3537C153.009 91.6432 142.016 87.1474 130.556 77.8713Z" fill="white"/>
</g>
<path opacity="0.2" d="M111.252 78.8772C109.327 83.8149 111.409 98.1812 125.303 98.1812C139.197 98.1812 144.241 88.0872 143.677 81.849L162.225 78.8619C162.225 78.8619 167.909 94.5693 155.839 105.557C143.769 116.545 101.93 115.834 93.0857 107.483C84.2415 99.1311 89.1487 82.6313 89.1487 82.6313L111.252 78.8772Z" fill="black"/>
<path d="M192.654 57.5717V54.1071C192.653 53.9789 192.694 53.854 192.77 53.7507C192.846 53.6474 192.953 53.5711 193.075 53.5331L195.615 52.7406V49.276C195.615 48.8611 195.78 48.4631 196.074 48.1697C196.367 47.8763 196.765 47.7114 197.18 47.7114H200.228C200.378 47.7086 200.524 47.7642 200.634 47.8666C200.744 47.9689 200.81 48.11 200.817 48.26V49.3776C200.817 49.5304 200.757 49.6769 200.65 49.7854C200.542 49.8938 200.396 49.9554 200.243 49.9568H196.367V53.3451C196.365 53.4473 196.338 53.5473 196.287 53.6361C196.237 53.7249 196.165 53.7995 196.078 53.8531L193.914 55.1638V57.5768L192.654 57.5717Z" fill="#999999" stroke="#263238" stroke-linecap="round" stroke-linejoin="round"/>
<path d="M195.996 57.5717H192.654V67.5691H195.996V57.5717Z" fill="#263238"/>
<path d="M200.177 56.7233H195.997V68.4174H200.177V56.7233Z" fill="#757575"/>
<path opacity="0.2" d="M200.167 63.8455H195.997V68.4175H200.167V63.8455Z" fill="black"/>
<path d="M200.177 56.7233H195.997V68.4174H200.177V56.7233Z" stroke="#263238" stroke-linecap="round" stroke-linejoin="round"/>
<path d="M56.2355 67.5641H59.5781V57.5666H56.2355V67.5641Z" fill="#263238"/>
<path d="M52.055 68.4124H56.2358V56.7182H52.055V68.4124Z" fill="#757575"/>
<path opacity="0.2" d="M56.2409 63.8455H52.0601V68.3057H56.2409V63.8455Z" fill="black"/>
<path d="M52.055 68.4124H56.2358V56.7182H52.055V68.4124Z" stroke="#263238" stroke-linecap="round" stroke-linejoin="round"/>
<path d="M59.0754 63.1648C59.3772 62.3728 59.4239 61.5063 59.209 60.6866C58.994 59.8668 58.5281 59.1347 57.8765 58.5928L55.4178 56.5608C55.2614 56.4289 55.0794 56.3307 54.8833 56.2724C54.6873 56.214 54.4813 56.1966 54.2782 56.2214C54.0751 56.2462 53.8793 56.3126 53.7031 56.4164C53.5268 56.5203 53.3738 56.6593 53.2537 56.8249L43.5052 70.2717C43.3197 70.5233 43.22 70.8278 43.2207 71.1404V85.5828C43.2207 85.7767 43.2592 85.9686 43.334 86.1474C43.4088 86.3263 43.5184 86.4885 43.6564 86.6246C43.7944 86.7607 43.9581 86.8681 44.1379 86.9404C44.3178 87.0127 44.5102 87.0485 44.7041 87.0459V87.0459C45.0921 87.0459 45.4642 86.8917 45.7386 86.6173C46.013 86.343 46.1671 85.9708 46.1671 85.5828V73.8531C46.168 73.5636 46.2585 73.2814 46.4262 73.0454L53.716 62.8854C53.7798 62.7962 53.8615 62.7212 53.9558 62.6652C54.0501 62.6091 54.155 62.5733 54.2639 62.56C54.3727 62.5466 54.4832 62.556 54.5883 62.5875C54.6933 62.619 54.7907 62.672 54.8742 62.7431L56.2153 63.8811C56.5474 64.1628 56.9686 64.3176 57.4041 64.3179V64.3179C57.7662 64.3158 58.1193 64.2046 58.4174 63.9989C58.7155 63.7932 58.9448 63.5026 59.0754 63.1648V63.1648Z" fill="white" stroke="#263238" stroke-linecap="round" stroke-linejoin="round"/>
<path d="M57.0636 61.8491C57.448 61.8491 57.7596 61.5375 57.7596 61.1531C57.7596 60.7687 57.448 60.4572 57.0636 60.4572C56.6793 60.4572 56.3677 60.7687 56.3677 61.1531C56.3677 61.5375 56.6793 61.8491 57.0636 61.8491Z" fill="#999999" stroke="#263238" stroke-linecap="round" stroke-linejoin="round"/>
<path d="M189.555 52.7406H62.6821V72.39H189.555V52.7406Z" fill="#263238"/>
<path opacity="0.2" d="M187.721 54.2189H64.4652C64.078 54.2189 63.7642 54.5327 63.7642 54.9199V58.1C63.7642 58.4872 64.078 58.801 64.4652 58.801H187.721C188.108 58.801 188.422 58.4872 188.422 58.1V54.9199C188.422 54.5327 188.108 54.2189 187.721 54.2189Z" fill="white"/>
<path d="M178.196 76.3423H74.0564C71.1216 69.6342 69.5668 62.4041 69.4844 55.0825H182.789C182.789 64.9276 178.196 76.3423 178.196 76.3423Z" fill="white"/>
<g opacity="0.7">
<path opacity="0.7" d="M82.479 74.7473C82.479 74.7473 84.7599 74.6254 86.035 73.8583C87.3101 73.0912 87.2186 74.5492 87.9502 74.6457C88.6817 74.7422 90.4089 74.1377 91.3233 74.1377C92.2377 74.1377 91.5417 74.6965 92.573 74.6457C93.6042 74.5949 93.0505 74.6965 93.589 74.5949L98.0035 73.8583C98.0035 73.8583 100.244 73.4265 100.696 73.6449C101.148 73.8634 101.742 74.9404 102.403 74.661C103.063 74.3816 102.713 74.153 103.708 74.153C104.324 74.1558 104.936 74.2447 105.527 74.4171C105.527 74.4171 105.618 74.158 106.076 74.153H106.893C106.893 74.153 108.626 74.6101 108.9 74.6101C109.174 74.6101 111.222 74.158 111.293 74.153C111.364 74.1479 113.325 73.6449 113.325 73.6449C113.741 74.0798 114.268 74.3925 114.849 74.5492C115.59 74.6457 116.373 74.4476 116.932 74.6965C117.49 74.9454 119.329 74.5949 119.329 74.5949C119.768 74.5978 120.206 74.6317 120.64 74.6965C121.209 74.8264 121.802 74.8089 122.362 74.6457C123.392 74.3734 124.473 74.3559 125.512 74.5949C127.163 74.8946 128.682 74.1428 129.383 74.1377C130.084 74.1326 132.888 74.4476 133.853 74.4476C134.818 74.4476 137.373 74.793 139.151 74.5949C140.929 74.3968 142.093 74.8438 143.287 74.8438C144.48 74.8438 145.755 74.793 146.03 74.793C146.304 74.793 147.625 73.9294 149.515 74.1377C151.404 74.346 149.723 73.8786 150.886 74.1377C152.05 74.3968 152.969 74.6457 153.462 74.6965C153.857 74.7196 154.254 74.7025 154.645 74.6457L156.677 74.4984H166.807" stroke="#263238" stroke-linecap="round" stroke-linejoin="round"/>
<path opacity="0.7" d="M80.3706 70.8255C80.3706 70.8255 86.6444 70.8255 87.7772 70.7239C88.9101 70.6223 89.5146 70.0432 90.1191 70.0432C90.7236 70.0432 93.7767 70.6223 93.7767 70.6223C93.8658 70.4329 94.0112 70.2756 94.1931 70.1719C94.3749 70.0682 94.5843 70.0233 94.7927 70.0432C95.6208 70.0432 95.1991 70.1194 95.9611 70.4242C96.7231 70.729 96.3269 70.4242 96.7282 70.7239C97.3264 70.9926 97.959 71.1772 98.6078 71.2725C98.6078 71.2725 101.437 71.4046 101.544 70.7239C101.651 70.0432 103.068 71.2725 103.068 71.2725C103.068 71.2725 106.909 70.7239 108.392 70.7239C109.875 70.7239 113.594 70.4242 113.594 70.4242C113.594 70.4242 116.642 70.8255 116.784 70.8255C116.926 70.8255 117.429 71.6231 117.973 71.2725C118.516 70.922 119.04 70.5207 119.685 70.6223C120.284 70.7709 120.864 70.9891 121.412 71.2725L122.829 70.5207L124.455 70.6223C124.455 70.6223 126.111 71.7247 127.295 71.2725C128.196 70.9124 129.076 70.5019 129.931 70.0432L131.389 71.2725H132.344L135.174 70.7239C135.391 70.9916 135.685 71.1872 136.016 71.2851C136.347 71.383 136.699 71.3786 137.028 71.2725C138.227 70.9271 149.682 71.2725 152.598 71.2725C155.514 71.2725 156.154 70.5207 156.154 70.5207L158.399 71.2725H169.575" stroke="#263238" stroke-linecap="round" stroke-linejoin="round"/>
</g>
<path opacity="0.2" d="M179.258 73.4061C178.643 75.2349 178.196 76.3424 178.196 76.3424H74.056C74.056 76.3424 73.548 75.2756 72.8521 73.4061H179.258Z" fill="black"/>
<path opacity="0.2" d="M181.427 65.715C181.077 67.239 180.69 68.7274 180.309 70.0431H71.7193C71.3434 68.7528 70.9574 67.2948 70.6221 65.715H181.427Z" fill="black"/>
<path d="M178.196 76.3423H74.0564C71.1216 69.6342 69.5668 62.4041 69.4844 55.0825H182.789C182.789 64.9276 178.196 76.3423 178.196 76.3423Z" stroke="#263238" stroke-linecap="round" stroke-linejoin="round"/>
<path d="M62.6566 51.7297H59.5527V73.4112H62.6566V51.7297Z" fill="#757575"/>
<path opacity="0.2" d="M62.5958 66.9799H59.5732V73.4111H62.5958V66.9799Z" fill="black"/>
<path d="M62.6566 51.7297H59.5527V73.4112H62.6566V51.7297Z" stroke="#263238" stroke-linecap="round" stroke-linejoin="round"/>
<path d="M192.68 51.7297H189.576V73.4112H192.68V51.7297Z" fill="#757575"/>
<path opacity="0.2" d="M192.68 66.9799H189.55V73.4111H192.68V66.9799Z" fill="black"/>
<path d="M192.68 51.7297H189.576V73.4112H192.68V51.7297Z" stroke="#263238" stroke-linecap="round" stroke-linejoin="round"/>
<path d="M189.601 50.8203V66.6343H62.6313V50.8203H61.4121V67.6961H190.82V50.8203H189.601Z" fill="#999999" stroke="#263238" stroke-linecap="round" stroke-linejoin="round"/>
<path d="M197.104 77.4599V112.923C197.104 113.522 196.866 114.095 196.443 114.518C196.02 114.941 195.447 115.179 194.848 115.179H57.3683C56.7701 115.179 56.1964 114.941 55.7734 114.518C55.3504 114.095 55.1128 113.522 55.1128 112.923V77.4599C55.1128 76.8617 55.3504 76.288 55.7734 75.865C56.1964 75.442 56.7701 75.2044 57.3683 75.2044H120.716V77.4599C120.716 77.4599 109.901 86.8427 91.2519 90.3022C93.924 102.398 108.524 111.638 126.141 111.638C143.759 111.638 158.359 102.387 161.036 90.3022C142.362 86.8427 131.547 77.4599 131.547 77.4599V75.1841H194.864C195.16 75.1861 195.454 75.2466 195.727 75.3621C196 75.4776 196.248 75.6459 196.456 75.8573C196.664 76.0687 196.828 76.319 196.94 76.594C197.051 76.8691 197.107 77.1633 197.104 77.4599Z" fill="white" stroke="#263238" stroke-linecap="round" stroke-linejoin="round"/>
<path d="M197.104 77.4599V112.923C197.104 113.22 197.046 113.514 196.932 113.788C196.818 114.062 196.652 114.311 196.442 114.52C196.232 114.73 195.982 114.896 195.708 115.009C195.434 115.122 195.14 115.18 194.843 115.179H57.3685C57.0719 115.18 56.778 115.122 56.5038 115.009C56.2296 114.896 55.9803 114.73 55.7703 114.52C55.5603 114.311 55.3938 114.062 55.2801 113.788C55.1664 113.514 55.1079 113.22 55.1079 112.923V77.4599C55.1093 76.8608 55.3479 76.2866 55.7715 75.8629C56.1952 75.4393 56.7694 75.2007 57.3685 75.1993H120.716V77.4599C120.716 77.4599 109.896 86.8376 91.2521 90.3022C93.9242 102.398 108.524 111.638 126.147 111.638C143.769 111.638 158.359 102.387 161.036 90.3022C142.362 86.8376 131.547 77.4599 131.547 77.4599V75.1841H194.864C195.462 75.1894 196.035 75.4321 196.455 75.8587C196.875 76.2854 197.108 76.8612 197.104 77.4599V77.4599Z" fill="white"/>
<path opacity="0.2" d="M194.056 78.0034V110.744C194.056 110.962 194.013 111.177 193.93 111.378C193.846 111.579 193.723 111.762 193.569 111.915C193.415 112.069 193.231 112.19 193.03 112.272C192.828 112.355 192.613 112.396 192.395 112.395H58.7199C58.5029 112.396 58.2879 112.353 58.0873 112.271C57.8866 112.188 57.7044 112.066 57.5509 111.913C57.3975 111.76 57.2759 111.577 57.1932 111.377C57.1104 111.176 57.0682 110.961 57.0689 110.744V78.0034C57.0682 77.786 57.1104 77.5705 57.193 77.3693C57.2756 77.1681 57.397 76.9852 57.5503 76.8309C57.7036 76.6767 57.8858 76.5541 58.0865 76.4703C58.2872 76.3865 58.5024 76.343 58.7199 76.3423H120.696V77.4599C120.696 77.4599 109.875 86.8376 91.2319 90.3021C93.9039 102.398 108.504 111.638 126.126 111.638C143.749 111.638 158.339 102.387 161.016 90.3021C142.342 86.8376 131.526 77.4599 131.526 77.4599V76.3423H192.41C192.848 76.3463 193.267 76.5231 193.575 76.8342C193.883 77.1453 194.056 77.5655 194.056 78.0034V78.0034Z" fill="white"/>
<path d="M197.104 77.4599V112.923C197.104 113.22 197.046 113.514 196.932 113.788C196.818 114.062 196.652 114.311 196.442 114.52C196.232 114.73 195.982 114.896 195.708 115.009C195.434 115.122 195.14 115.18 194.843 115.179H57.3685C57.0719 115.18 56.778 115.122 56.5038 115.009C56.2296 114.896 55.9803 114.73 55.7703 114.52C55.5603 114.311 55.3938 114.062 55.2801 113.788C55.1664 113.514 55.1079 113.22 55.1079 112.923V77.4599C55.1093 76.8608 55.3479 76.2866 55.7715 75.8629C56.1952 75.4393 56.7694 75.2007 57.3685 75.1993H120.716V77.4599C120.716 77.4599 109.896 86.8376 91.2521 90.3022C93.9242 102.398 108.524 111.638 126.147 111.638C143.769 111.638 158.359 102.387 161.036 90.3022C142.362 86.8376 131.547 77.4599 131.547 77.4599V75.1841H194.864C195.462 75.1894 196.035 75.4321 196.455 75.8587C196.875 76.2854 197.108 76.8612 197.104 77.4599V77.4599Z" stroke="#263238" stroke-linecap="round" stroke-linejoin="round"/>
<path opacity="0.2" d="M151.689 125.689L158.44 144.521C158.44 144.521 161.361 123.794 163.104 123.794C164.846 123.794 168.6 135.128 168.6 135.128C168.6 135.128 170.917 129.215 173.111 129.001C175.306 128.788 177.292 143.52 177.292 143.52L177.633 176.22L174.864 225.674C174.864 225.674 157.201 206.217 152.05 201.203C146.898 196.19 141.976 185.156 140.554 182.915C139.131 180.675 138.771 168.945 138.771 168.945C140.571 166.641 141.513 163.781 141.432 160.858C141.432 160.858 145.578 153.919 145.324 148.798C145.07 143.678 144.43 123.779 151.689 125.689Z" fill="black" fill-opacity="0.7"/>
<path d="M204.831 216.916L178.09 230.983C178.09 230.84 174.574 225.146 170.327 218.704C168.407 215.788 166.334 212.725 164.368 209.951C161.148 205.415 157.053 201.498 156.703 200.645C155.687 198.105 147.853 188.595 146.101 184.897C144.348 181.199 143.947 169.692 143.175 166.985C142.403 164.277 144.617 161.691 146.395 160.431C148.173 159.172 150.038 155.859 150.038 155.859C150.038 155.859 148.072 148.199 148.051 144.302C148.031 140.406 146.705 126.807 148.29 125.537C149.875 124.267 151.293 124.8 151.689 125.674C152.989 128.554 154.158 135.799 155.158 139.136C156.159 142.474 158.039 152.156 158.963 152.852C159.888 153.548 161.534 150.937 161.534 150.937C161.534 150.937 161.691 142.809 162.042 139.441L161.534 128.773C161.534 128.773 160.584 122.362 162.794 121.752C165.842 120.914 166.954 122.829 167.3 123.637C167.645 124.445 169.067 129.098 169.067 129.098L169.149 129.418C169.149 129.449 169.149 129.479 169.149 129.515V129.57C169.172 129.659 169.198 129.755 169.225 129.86C169.281 130.073 169.347 130.327 169.418 130.617C170.094 133.264 171.394 138.562 171.338 139.868C171.262 141.63 170.647 151.394 171.516 153.421L172.867 139.934C172.867 139.934 170.688 129.54 171.323 128.041C171.958 126.543 174.95 128.199 175.306 128.788C175.661 129.377 178.567 132.944 179.085 134.305L179.593 135.666C179.593 135.666 180.309 132.446 181.991 133.284C183.672 134.122 183.881 138.217 183.998 140.005C184.114 141.793 185.334 153.294 185.522 153.314C185.71 153.335 187.65 159.309 187.386 163.256C186.832 171.704 188.295 177.988 188.346 181.229C188.397 184.47 185.953 191.978 185.953 191.978C186.04 192.126 187.635 194.838 188.072 197.221C188.392 198.968 194.086 205.283 198.74 210.307C201.976 213.771 204.688 216.606 204.831 216.916Z" fill="white"/>
<path opacity="0.4" d="M170.333 218.714C168.412 215.798 166.34 212.735 164.374 209.961C161.153 205.425 157.059 201.508 156.708 200.655C155.692 198.115 147.859 188.605 146.106 184.907C144.354 181.209 143.952 169.702 143.18 166.995C142.408 164.287 144.623 161.701 146.401 160.442C148.179 159.182 150.043 155.87 150.043 155.87C150.043 155.87 148.077 148.209 148.057 144.313C148.037 140.416 146.711 126.817 148.296 125.547C149.881 124.277 151.298 124.81 151.694 125.684C152.995 128.565 154.163 135.809 155.164 139.146C156.165 142.484 158.044 152.166 158.969 152.862C159.893 153.558 161.539 150.947 161.539 150.947C161.539 150.947 161.697 142.819 162.047 139.451L161.539 128.783C161.539 128.783 160.589 122.372 162.799 121.762C165.847 120.924 166.96 122.839 167.305 123.647C167.65 124.455 169.073 129.108 169.073 129.108L169.154 129.428C169.154 129.459 169.154 129.489 169.154 129.525V129.581C169.174 129.669 169.2 129.765 169.23 129.87C169.286 130.084 169.352 130.338 169.423 130.627C168.636 129.382 167.554 128.321 166.106 128.041C162.042 127.249 162.921 131.77 163.307 134.483C163.526 136.283 163.483 138.105 163.18 139.893L164.196 139.309C163.464 140.614 162.418 151.465 162.418 153.878C162.418 156.291 160.508 157.094 158.796 156.388C157.084 155.682 156.474 144.607 155.174 142.621C153.873 140.635 150.256 144.429 150.094 147.899C149.931 151.369 153.167 161.717 152.4 164.155C151.633 166.593 151.643 175.839 151.643 175.839L150.709 173.457C150.77 173.782 150.709 174.874 148.753 178.09C148.018 179.253 147.543 180.562 147.36 181.926C147.177 183.29 147.29 184.678 147.691 185.994C148.885 188.631 154.94 195.58 155.956 196.296C155.956 196.296 156.693 193.279 159.004 194.081C158.217 195.333 157.644 196.706 157.308 198.145C156.83 200.36 161.651 201.778 163.16 203.886C164.084 205.171 164.704 209.088 170.333 218.714Z" fill="white"/>
<path opacity="0.4" d="M198.77 210.312C194.016 205.522 185.649 200.96 186.157 199.766C186.838 198.161 185.974 194.742 184.511 191.968C183.048 189.194 185.019 184.694 185.019 184.694L185.923 187.31C186.647 184.292 186.731 181.157 186.172 178.105C185.247 172.918 184.526 174.742 184.526 174.742C184.526 174.742 184.714 170.068 185.542 167.518C186.37 164.968 187.066 158.775 185.923 155.113C184.78 151.45 182.367 152.141 181.722 153.401C181.077 154.661 181.768 159.573 182.301 161.183C182.834 162.794 180.564 165.501 180.518 163.49C180.472 161.478 179.614 155.87 179.614 155.87L181.336 144.607L179.614 135.661C179.614 135.661 180.33 132.441 182.012 133.279C183.693 134.117 183.901 138.212 184.018 140C184.135 141.788 185.354 153.289 185.542 153.309C185.73 153.33 187.671 159.304 187.406 163.251C186.853 171.699 188.316 177.983 188.367 181.224C188.417 184.465 185.974 191.973 185.974 191.973C186.06 192.121 187.655 194.833 188.092 197.216C188.412 198.963 194.107 205.278 198.76 210.302L198.77 210.312Z" fill="white"/>
<path opacity="0.4" d="M179.085 134.305C179.182 134.559 179.263 134.767 179.324 134.935C177.709 131.181 174.955 132.344 174.468 133.411C173.98 134.478 175.621 141.097 175.992 142.123C176.363 143.149 174.519 151.343 174.249 154.056C173.98 156.769 173.264 157.322 173.264 157.322C171.44 157.46 171.232 152.425 171.232 151.734C171.267 152.312 171.38 152.883 171.567 153.431L172.918 139.944C172.918 139.944 170.688 129.54 171.323 128.041C171.958 126.543 174.95 128.199 175.306 128.788C175.662 129.377 178.567 132.944 179.085 134.305Z" fill="white"/>
<path d="M204.831 216.916C204.485 216.134 188.621 200.152 188.067 197.216C187.62 194.767 185.943 191.968 185.943 191.968C185.943 191.968 188.387 184.475 188.336 181.219C188.285 177.963 186.812 171.694 187.376 163.246C187.64 159.299 185.705 153.325 185.512 153.304C185.319 153.284 184.099 141.783 183.988 139.995C183.876 138.206 183.668 134.112 181.981 133.274C180.295 132.436 179.583 135.656 179.583 135.656L179.075 134.295C178.567 132.933 175.651 129.367 175.296 128.778C174.94 128.189 171.953 126.528 171.313 128.031C170.673 129.535 172.903 139.913 172.903 139.913L171.562 153.416C170.693 151.384 171.308 141.625 171.384 139.863C171.46 138.1 169.073 129.093 169.073 129.093C169.073 129.093 167.64 124.46 167.305 123.627C166.97 122.794 165.847 120.904 162.799 121.742C160.589 122.352 161.539 128.763 161.539 128.763L162.047 139.431C161.707 142.814 161.539 150.927 161.539 150.927C161.539 150.927 159.893 153.533 158.969 152.842C158.044 152.151 156.165 142.474 155.164 139.126C154.163 135.778 152.995 128.544 151.694 125.664C151.298 124.79 149.881 124.257 148.296 125.527C146.711 126.797 148.031 140.391 148.057 144.292C148.082 148.194 150.043 155.849 150.043 155.849C150.043 155.849 148.179 159.141 146.401 160.421C144.623 161.701 142.408 164.262 143.18 166.974C143.952 169.687 144.354 181.198 146.106 184.887C147.859 188.575 155.672 198.095 156.708 200.635C157.059 201.488 161.153 205.405 164.374 209.941C170.698 218.846 178.09 230.769 178.09 230.972" stroke="#263238" stroke-linecap="round" stroke-linejoin="round"/>
<path d="M150.038 155.875C150.038 155.875 151.298 162.118 151.252 163.164C151.252 163.164 150.149 167.985 150.139 171.11C149.368 172.287 148.676 173.514 148.067 174.782C147.64 175.91 146.878 178.684 147.193 180.228" stroke="#263238" stroke-linecap="round" stroke-linejoin="round"/>
<path d="M147.737 165.1C147.737 165.1 150.825 165.125 150.627 166.426" stroke="#263238" stroke-linecap="round" stroke-linejoin="round"/>
<path d="M150.14 171.11C150.14 171.11 148.158 170.251 147.462 171.404" stroke="#263238" stroke-linecap="round" stroke-linejoin="round"/>
<path d="M161.544 150.947C161.544 150.947 161.402 155.732 160.142 155.351" stroke="#263238" stroke-linecap="round" stroke-linejoin="round"/>
<path d="M171.562 153.416C171.562 153.416 171.196 156.032 172.182 156.84" stroke="#263238" stroke-linecap="round" stroke-linejoin="round"/>
<path d="M179.599 135.667C179.599 135.667 180.97 142.271 181.285 143.835C181.6 145.4 179.726 153.386 179.761 155.463C179.797 157.541 180.686 160.513 180.564 161.91" stroke="#263238" stroke-linecap="round" stroke-linejoin="round"/>
<path d="M185.075 185.821C185.075 185.821 184.633 190.134 185.959 191.978" stroke="#263238" stroke-linecap="round" stroke-linejoin="round"/>
<path d="M158.44 194.356C158.44 194.356 155.484 197.048 156.566 200.36" stroke="#263238" stroke-linecap="round" stroke-linejoin="round"/>
<path d="M177.871 160.787C177.917 162.687 176.804 164.902 176.688 167.528" stroke="#263238" stroke-linecap="round" stroke-linejoin="round"/>
<path d="M168.453 159.09C169.083 160.645 167.711 164.028 167.503 165.298C167.419 166.292 167.528 167.292 167.823 168.244" stroke="#263238" stroke-linecap="round" stroke-linejoin="round"/>
<path d="M186.157 164.445C185.903 166.096 184.734 167.274 184.511 172.354" stroke="#263238" stroke-linecap="round" stroke-linejoin="round"/>
<path d="M157.312 158.608C158.166 159.537 157.592 163.977 157.821 164.704" stroke="#263238" stroke-linecap="round" stroke-linejoin="round"/>
<path d="M173.228 133.03C173.228 133.03 176.134 130.901 178.633 133.411" stroke="#263238" stroke-linecap="round" stroke-linejoin="round"/>
<path d="M163.221 128.138C163.221 128.138 163.729 127.289 166.182 127.498C168.636 127.706 169.073 129.088 169.073 129.088" stroke="#263238" stroke-linecap="round" stroke-linejoin="round"/>
<path d="M156.053 142.641C156.053 142.641 155.23 141.427 153.061 141.829C150.891 142.23 149.926 145.298 149.926 145.298" fill="white"/>
<path d="M156.053 142.641C156.053 142.641 155.23 141.427 153.061 141.829C150.891 142.23 149.926 145.298 149.926 145.298" stroke="#263238" stroke-linecap="round" stroke-linejoin="round"/>
<path d="M185.527 153.314C185.527 153.314 183.718 150.693 181.544 151.816" stroke="#263238" stroke-linecap="round" stroke-linejoin="round"/>
<path opacity="0.2" d="M108.483 134.112C111.531 136.474 108.961 150.973 108.961 150.973L109.23 155.692L114.457 153.416L116.84 163.5C116.84 163.5 116.779 167.193 118.714 168.58C118.714 168.58 119.192 176.865 118.714 182.921C118.237 188.976 108.554 196.093 105.217 202.448C101.879 208.803 80.1114 227.482 80.1114 227.482L61.6812 218.714L75.006 164.897L86.944 149.55L94.0204 131.897C94.0204 131.897 95.2346 143.429 94.5284 151.201L108.483 134.112Z" fill="black" fill-opacity="0.7"/>
<path d="M113.614 166.319C113.152 168.544 114.264 180.741 114.071 182.387C113.878 184.033 104.175 195.087 103.688 195.925C103.2 196.764 96.7128 200.497 95.204 202.281C88.153 210.505 84.3023 218.079 81.2086 225.674C80.6143 227.137 80.0453 228.605 79.4865 230.078L51.5059 213.822C53.8579 210.906 56.0779 208.316 58.1099 205.958C62.1739 201.178 65.4098 197.353 66.9948 193.741C67.4812 192.819 68.0383 191.936 68.661 191.099C69.2909 190.205 69.8548 189.469 69.8548 189.469C69.8548 189.469 67.8228 183.744 68.2953 181.945C68.7677 180.147 67.7111 165.364 67.7111 165.364C67.7111 165.364 66.3344 155.301 64.978 152.761C64.6449 152.097 64.4942 151.358 64.5411 150.617C64.6072 148.295 65.9534 145.369 66.6138 141.981C67.4977 137.409 67.071 135.148 69.8447 136.728C72.6183 138.308 71.3229 147.904 71.3229 147.904L75.5139 157.19C76.6163 154.945 75.5139 148.392 75.4581 146.843C75.4581 146.589 75.4581 146.167 75.4174 145.618C75.3311 142.946 75.1533 137.384 75.3819 135.189C75.3819 135.067 75.3819 134.955 75.4225 134.854C75.7629 132.588 76.977 125.38 77.7491 124.577C78.8972 123.388 80.7209 122.387 82.438 125.085C83.3981 126.609 82.9866 138.694 82.9866 138.694C82.9866 138.694 86.9694 133.889 88.1784 132.715C89.3874 131.542 93.0552 129.398 94.0356 131.882C95.0161 134.366 91.3991 142.042 91.3991 142.042C92.156 143.82 92.2475 148.742 92.2475 148.742C92.2475 148.742 93.9594 154.894 95.011 154.838H95.0567C95.3615 154.772 95.6968 153.655 96.0473 152.085C96.9109 148.24 97.8507 141.661 98.5873 141.087L99.0953 140.68C99.1185 140.651 99.1459 140.626 99.1766 140.604L99.3646 140.437C101.163 138.836 104.953 135.28 104.953 135.28C104.953 135.28 105.222 133.579 108.539 134.102C111.856 134.625 107.066 144.414 107.066 144.414C106.4 147.528 105.379 155.539 105.379 155.539C105.069 158.872 105.252 167.828 105.252 167.828C105.252 167.828 106.822 162.616 106.72 160.716C106.619 158.816 109.84 154.163 110.784 152.964C111.729 151.765 115.946 152.187 114.772 154.488C113.599 156.789 114.076 164.084 113.614 166.319Z" fill="white"/>
<path opacity="0.4" d="M66.9796 193.761C67.466 192.839 68.0231 191.956 68.6459 191.12C68.6459 191.12 66.9949 195.692 66.8323 198.125C66.7256 199.73 62.4991 202.509 58.0947 205.979C62.1841 201.198 65.3947 197.373 66.9796 193.761Z" fill="white"/>
<path opacity="0.4" d="M68.6459 191.12C69.2758 190.226 69.8397 189.489 69.8397 189.489C69.8397 189.489 67.8077 183.764 68.2801 181.966C68.7526 180.167 67.6959 165.384 67.6959 165.384C67.6959 165.384 66.3193 155.321 64.9629 152.781L68.1227 158.303C68.1227 158.303 67.8128 162.667 68.7119 165.059C69.6111 167.452 70.7439 174.752 70.7439 174.752C70.7439 174.752 69.413 180.889 69.8651 183.098C70.3172 185.308 72.3543 184.506 72.3543 184.506C72.3543 184.506 73.3551 188.549 68.6459 191.12Z" fill="white"/>
<path opacity="0.4" d="M76.0168 149.55C78.1962 162.311 74.442 158.781 73.0857 156.027C71.7293 153.274 68.5442 148.062 66.1464 149.174C65.473 149.49 64.9089 150 64.5259 150.637C64.5919 148.316 65.9381 145.39 66.5985 142.001C67.4824 137.429 67.0557 135.169 69.8294 136.749C72.6031 138.328 71.3077 147.925 71.3077 147.925L75.4987 157.211C76.601 154.965 75.4987 148.412 75.4428 146.863C75.4428 146.609 75.4428 146.187 75.4022 145.639C75.5698 146.812 75.773 148.118 76.0168 149.55Z" fill="white"/>
<path opacity="0.4" d="M81.3509 136.942C81.3509 136.942 78.9989 133.863 76.9567 134.021C76.6061 134.04 76.2686 134.161 75.9861 134.369C75.7035 134.578 75.4882 134.865 75.3667 135.194C75.3667 135.072 75.3667 134.96 75.4073 134.859C75.7477 132.593 76.9618 125.385 77.734 124.582C78.8821 123.393 80.7058 122.393 82.4228 125.09C83.3829 126.614 82.9715 138.699 82.9715 138.699C82.9715 138.699 86.9542 133.894 88.1632 132.72C89.3723 131.547 93.04 129.403 94.0205 131.887C95.0009 134.371 91.3839 142.047 91.3839 142.047C92.1409 143.825 92.2323 148.748 92.2323 148.748C92.2323 148.748 93.9443 154.899 94.9958 154.844C92.6793 159.202 91.135 149.565 91.135 149.565C91.4805 147.574 90.2511 143.256 90.373 142.118C90.4949 140.98 88.2394 136.957 84.4396 138.054C80.6397 139.151 83.3829 154.168 83.3829 154.168C82.6321 155.364 82.1952 156.731 82.1129 158.14C80.9395 156.693 82.1129 152.552 82.1129 152.552C81.0715 148.59 81.3509 136.942 81.3509 136.942Z" fill="white"/>
<path opacity="0.4" d="M99.0597 140.665C97.4392 142.367 97.6627 146.67 96.0117 152.07C96.8753 148.224 97.8151 141.646 98.5517 141.072L99.0597 140.665Z" fill="white"/>
<path opacity="0.4" d="M113.614 166.319C113.152 168.544 114.265 180.741 114.072 182.387C113.878 184.033 104.176 195.087 103.688 195.926C103.2 196.764 96.7131 200.498 95.2044 202.281C88.1533 210.505 84.3027 218.079 81.209 225.674C82.3743 221.737 83.7808 217.876 85.4203 214.112C88.7579 206.609 90.1193 205.273 92.1208 203.129C94.1223 200.985 93.9039 196.428 93.9039 196.428C95.3812 196.073 96.8954 195.894 98.4149 195.895C100.955 195.895 108.473 185.176 111.059 183.297C113.645 181.417 114.107 181.417 111.059 177.272C108.011 173.126 108.875 177.937 107.96 177.78C107.046 177.622 106.548 179.624 106.548 179.624C106.228 175.397 103.5 170.48 102.926 169.25C102.352 168.021 104.318 160.813 103.912 158.806C103.505 156.799 105.659 144.582 105.659 144.582C105.659 144.582 105.39 139.893 101.143 139.878C100.491 139.842 99.8474 140.036 99.3243 140.427C101.123 138.826 104.912 135.27 104.912 135.27C104.912 135.27 105.182 133.569 108.499 134.092C111.816 134.615 107.026 144.404 107.026 144.404C106.36 147.518 105.339 155.529 105.339 155.529C105.029 158.862 105.212 167.818 105.212 167.818C105.212 167.818 106.782 162.606 106.68 160.706C106.579 158.806 109.799 154.153 110.744 152.954C111.689 151.755 115.905 152.177 114.732 154.478C113.558 156.779 114.077 164.084 113.614 166.319Z" fill="white"/>
<path d="M79.4816 230.124C82.9309 221.016 86.7866 212.126 95.2042 202.306C96.7282 200.548 103.195 196.814 103.688 195.951C104.181 195.087 113.883 184.054 114.071 182.413C114.259 180.772 113.152 168.57 113.614 166.345C114.076 164.12 113.538 156.784 114.706 154.498C115.875 152.212 111.658 151.796 110.719 152.974C109.779 154.153 106.568 158.847 106.655 160.726C106.741 162.606 105.186 167.838 105.186 167.838C105.186 167.838 105.004 158.882 105.313 155.55C105.313 155.55 106.329 147.538 107 144.424C107 144.424 111.785 134.63 108.473 134.112C105.161 133.594 104.887 135.291 104.887 135.291C104.887 135.291 99.5984 140.259 98.5519 141.072C97.5054 141.884 96.078 154.584 95.0264 154.823C93.9748 155.062 92.2172 148.727 92.2172 148.727C92.2172 148.727 92.1257 143.805 91.3688 142.027C91.3688 142.027 94.9807 134.371 94.0053 131.867C93.03 129.362 89.3622 131.531 88.1481 132.7C86.934 133.868 82.9563 138.679 82.9563 138.679C82.9563 138.679 83.3678 126.583 82.4077 125.07C80.6906 122.362 78.8517 123.363 77.7188 124.562C76.9467 125.364 75.7326 132.573 75.3922 134.838C75.0518 137.104 75.3922 145.273 75.4278 146.827C75.4633 148.382 76.586 154.93 75.4836 157.175L71.2926 147.889C71.2926 147.889 72.5931 138.283 69.8144 136.713C67.0356 135.143 67.4674 137.409 66.5835 141.966C65.6996 146.522 63.5965 150.226 64.9477 152.771C66.299 155.316 67.6808 165.374 67.6808 165.374C67.6808 165.374 68.7273 180.157 68.265 181.955C67.8027 183.754 69.8398 189.484 69.8398 189.484C69.8398 189.484 67.4928 192.578 66.9797 193.756C64.6125 199.136 58.6231 205.019 51.501 213.868" stroke="#263238" stroke-linecap="round" stroke-linejoin="round"/>
<path d="M82.9715 138.709C82.3815 139.582 82.0828 140.619 82.118 141.671C82.118 143.602 83.3829 154.168 83.3829 154.168C83.3829 154.168 82.4635 155.255 82.4178 156.2" stroke="#263238" stroke-linecap="round" stroke-linejoin="round"/>
<path d="M105.197 167.813C105.336 169.597 105.795 171.342 106.553 172.964C107.742 175.311 107.356 176.606 106.949 177.993C106.677 179.209 106.532 180.45 106.518 181.696" stroke="#263238" stroke-linecap="round" stroke-linejoin="round"/>
<path d="M75.9459 155.108C75.9459 155.108 76.8298 157.912 75.189 159.243" stroke="#263238" stroke-linecap="round" stroke-linejoin="round"/>
<path d="M95.0416 154.823C95.0416 154.823 95.2144 155.926 93.6548 156.027" stroke="#263238" stroke-linecap="round" stroke-linejoin="round"/>
<path d="M105.517 142.123C105.517 142.123 101.605 137.856 98.5674 141.072" stroke="#263238" stroke-linecap="round" stroke-linejoin="round"/>
<path d="M89.667 139.725C89.667 139.725 87.8637 137.444 86.299 137.582C84.7344 137.719 82.6211 138.674 82.3823 139.929" stroke="#263238" stroke-linecap="round" stroke-linejoin="round"/>
<path d="M107.285 176.621C107.916 177.524 108.375 178.535 108.641 179.603" stroke="#263238" stroke-linecap="round" stroke-linejoin="round"/>
<path d="M97.1245 159.278C95.9104 161.539 96.4895 165.374 96.0425 166.426" stroke="#263238" stroke-linecap="round" stroke-linejoin="round"/>
<path d="M84.2617 155.524C84.5462 156.825 83.647 158.943 83.5099 160.503C83.3727 162.062 84.6478 164.47 84.4141 166.66" stroke="#263238" stroke-linecap="round" stroke-linejoin="round"/>
<path d="M76.0169 160.848C76.0169 160.848 74.9552 163.297 75.0009 164.912C75.0467 166.527 75.6207 170.068 75.6207 170.068" stroke="#263238" stroke-linecap="round" stroke-linejoin="round"/>
<path d="M68.2089 160.731C68.2089 160.731 67.8228 163.271 68.7169 165.059C69.611 166.848 70.4797 170.647 70.4797 170.647" stroke="#263238" stroke-linecap="round" stroke-linejoin="round"/>
<path d="M69.8398 189.484C70.3081 189.354 70.7266 189.087 71.0409 188.716C71.3553 188.346 71.551 187.89 71.6026 187.406" stroke="#263238" stroke-linecap="round" stroke-linejoin="round"/>
<path d="M95.3768 197.226C95.3768 197.226 96.3471 200.818 94.4878 203.129" stroke="#263238" stroke-linecap="round" stroke-linejoin="round"/>
<path d="M64.5513 150.211C64.5513 150.211 67.2843 147.544 69.3519 149.794" stroke="#263238" stroke-linecap="round" stroke-linejoin="round"/>
<path d="M75.4072 134.859C75.4072 134.859 77.4392 132.73 79.8167 135.006" stroke="#263238" stroke-linecap="round" stroke-linejoin="round"/>
</svg>
