<svg width="86" height="86" viewBox="0 0 86 86" fill="none" xmlns="http://www.w3.org/2000/svg">
<g clip-path="url(#clip0_580_309)">
<path d="M60.2486 48.2324C63.1416 44.4176 64.6707 39.8642 64.6707 35.0644C64.6707 29.1794 62.3626 23.6627 58.1716 19.5303C53.9812 15.3989 48.4274 13.1678 42.5416 13.2529C36.8379 13.3336 31.4642 15.6223 27.4103 19.6974C23.3567 23.7723 21.0957 29.1582 21.0439 34.8625C20.9995 39.7528 22.5376 44.388 25.4917 48.2673C30.2875 54.5649 32.9287 62.279 32.9287 69.9886V78.4244C32.9287 82.1663 35.9729 85.2105 39.7148 85.2105H46.027C49.7689 85.2105 52.8131 82.1661 52.8131 78.4244V69.9891C52.8133 62.1943 55.3658 54.6708 60.2486 48.2324V48.2324ZM27.7168 46.573C25.1423 43.1922 23.8019 39.1516 23.8405 34.888C23.9335 24.6453 32.3405 16.1943 42.5812 16.0495C47.7185 15.9805 52.5551 17.9205 56.2078 21.5222C59.8617 25.1246 61.8739 29.9342 61.8739 35.0646C61.8739 39.249 60.5414 43.218 58.0202 46.5426C52.8754 53.3267 50.1053 61.2412 49.9919 69.4632H35.7216C35.6047 61.321 32.7725 53.2118 27.7168 46.573V46.573ZM35.7255 77.4767V76.3445L50.0165 77.9818V78.4244C50.0165 78.6575 49.9923 78.8846 49.9539 79.1066L35.7255 77.4767ZM35.7255 73.5295V72.2599H50.0165V75.1667L35.7255 73.5295V73.5295ZM39.7148 82.4139C38.2126 82.4139 36.9028 81.5786 36.2224 80.3486L48.2611 81.7278C47.6232 82.1605 46.8543 82.4138 46.0272 82.4138H39.7148V82.4139Z" fill="black"/>
<path d="M29.0291 37.1678C28.9201 36.4359 28.868 35.6841 28.8749 34.9335C28.882 34.1612 28.2617 33.5295 27.4894 33.5224C26.7224 33.5157 26.0854 34.1357 26.0784 34.908C26.0702 35.8048 26.1322 36.7039 26.2629 37.5804C26.3664 38.2743 26.9631 38.7727 27.6444 38.7727C27.713 38.7727 27.7825 38.7677 27.8524 38.7573C28.6161 38.6431 29.1431 37.9316 29.0291 37.1678Z" fill="black"/>
<path d="M37.2585 58.4087C37.4032 58.4087 37.5505 58.386 37.6956 58.3384C38.4293 58.0972 38.8284 57.3068 38.5872 56.5733C37.0374 51.8604 34.7276 47.4694 31.722 43.5228C31.2253 42.8704 30.7851 42.1755 30.4139 41.4571C30.0592 40.7709 29.2155 40.5024 28.5294 40.8571C27.8434 41.2117 27.5748 42.0554 27.9294 42.7415C28.375 43.6033 28.9023 44.4362 29.4971 45.2172C32.3136 48.9157 34.4781 53.0303 35.9304 57.4468C36.124 58.0355 36.6708 58.4087 37.2585 58.4087Z" fill="black"/>
<path d="M57.5508 39.8527C56.8415 39.5471 56.0187 39.8745 55.7133 40.5838C55.2703 41.6126 54.697 42.5939 54.0093 43.5004C53.5426 44.1157 53.6633 44.993 54.2786 45.4597C54.5312 45.6514 54.828 45.7438 55.1224 45.7438C55.5451 45.7438 55.9628 45.5531 56.2378 45.1903C57.0617 44.1038 57.7494 42.9262 58.2819 41.6902C58.5875 40.9809 58.2603 40.1581 57.5508 39.8527V39.8527Z" fill="black"/>
<path d="M42.8569 21.0818C50.5671 21.0818 56.8397 27.3546 56.8397 35.0647C56.8397 35.5031 56.8195 35.9448 56.7798 36.3775C56.7094 37.1467 57.2754 37.8272 58.0445 37.8979C58.088 37.9018 58.131 37.9038 58.1739 37.9038C58.8886 37.9038 59.4983 37.3588 59.5649 36.6332C59.6122 36.1158 59.6365 35.5881 59.6365 35.0647C59.6365 25.8124 52.1092 18.285 42.8569 18.285C42.0846 18.285 41.4585 18.9111 41.4585 19.6834C41.4585 20.4556 42.0846 21.0818 42.8569 21.0818V21.0818Z" fill="black"/>
<path d="M42.8569 10.8385C43.6292 10.8385 44.2553 10.2124 44.2553 9.44014V1.60915C44.2553 0.836861 43.6292 0.210754 42.8569 0.210754C42.0846 0.210754 41.4585 0.836861 41.4585 1.60915V9.44014C41.4585 10.2124 42.0846 10.8385 42.8569 10.8385Z" fill="black"/>
<path d="M28.71 13.6015C28.9692 14.0503 29.4391 14.301 29.9223 14.301C30.1595 14.301 30.4 14.2406 30.6202 14.1135C31.289 13.7273 31.5184 12.8721 31.1322 12.2033L27.2186 5.42387C26.8323 4.75488 25.9772 4.52573 25.3084 4.91188C24.6396 5.29802 24.4103 6.15327 24.7964 6.82208L28.71 13.6015Z" fill="black"/>
<path d="M72.7414 50.9469L65.962 47.0333C65.293 46.647 64.4378 46.8763 64.0518 47.5453C63.6657 48.2141 63.8948 49.0693 64.5638 49.4555L71.3432 53.3691C71.5634 53.4963 71.8038 53.5567 72.0411 53.5567C72.5244 53.5567 72.9944 53.3057 73.2534 52.8571C73.6396 52.1883 73.4102 51.333 72.7414 50.9469V50.9469Z" fill="black"/>
<path d="M12.9725 19.67L19.7519 23.5836C19.9721 23.7108 20.2125 23.7712 20.4498 23.7712C20.9331 23.7712 21.4031 23.5202 21.6621 23.0716C22.0483 22.4028 21.8191 21.5475 21.1501 21.1614L14.3707 17.2478C13.7019 16.8614 12.8467 17.0908 12.4605 17.7598C12.0744 18.4286 12.3035 19.2836 12.9725 19.67V19.67Z" fill="black"/>
<path d="M76.5565 33.9099H68.7255C67.9533 33.9099 67.3271 34.536 67.3271 35.3083C67.3271 36.0806 67.9533 36.7067 68.7255 36.7067H76.5565C77.3288 36.7067 77.9549 36.0806 77.9549 35.3083C77.9549 34.536 77.329 33.9099 76.5565 33.9099Z" fill="black"/>
<path d="M18.3871 35.3083C18.3871 34.536 17.7609 33.9099 16.9887 33.9099H9.15767C8.38538 33.9099 7.75928 34.536 7.75928 35.3083C7.75928 36.0806 8.38538 36.7067 9.15767 36.7067H16.9887C17.7611 36.7067 18.3871 36.0806 18.3871 35.3083Z" fill="black"/>
<path d="M65.2641 23.7711C65.5013 23.7711 65.7418 23.7106 65.962 23.5835L72.7414 19.6699C73.4102 19.2837 73.6395 18.4285 73.2534 17.7596C72.8672 17.0908 72.0118 16.8615 71.3432 17.2477L64.5638 21.1613C63.895 21.5474 63.6656 22.4027 64.0518 23.0715C64.3108 23.5201 64.781 23.7711 65.2641 23.7711Z" fill="black"/>
<path d="M19.7519 47.0334L12.9725 50.947C12.3037 51.3331 12.0743 52.1884 12.4605 52.8572C12.7195 53.3058 13.1895 53.5567 13.6728 53.5567C13.91 53.5567 14.1505 53.4963 14.3707 53.3691L21.1501 49.4555C21.8189 49.0694 22.0482 48.2142 21.6621 47.5454C21.2761 46.8764 20.4203 46.6472 19.7519 47.0334V47.0334Z" fill="black"/>
<path d="M55.0941 14.1135C55.3143 14.2406 55.5546 14.301 55.7919 14.301C56.2752 14.301 56.7453 14.0501 57.0043 13.6015L60.9179 6.82208C61.304 6.15327 61.0747 5.29802 60.4059 4.91188C59.7373 4.52573 58.8818 4.75488 58.4957 5.42387L54.5821 12.2033C54.1959 12.8721 54.4253 13.7273 55.0941 14.1135V14.1135Z" fill="black"/>
</g>
<defs>
<clipPath id="clip0_580_309">
<rect width="85" height="85" fill="white" transform="translate(0.356934 0.210754)"/>
</clipPath>
</defs>
</svg>
