<svg width="104" height="29" viewBox="0 0 104 29" fill="none" xmlns="http://www.w3.org/2000/svg">
<path d="M13.3766 15.2222C14.2915 15.3676 15.1222 15.7434 15.8686 16.3495C16.6391 16.9555 17.241 17.707 17.6744 18.604C18.1319 19.501 18.3607 20.4585 18.3607 21.4767C18.3607 22.7616 18.0356 23.9252 17.3855 24.9676C16.7354 25.9858 15.7844 26.7979 14.5323 27.404C13.3044 27.9858 11.8477 28.2767 10.1622 28.2767H0.771973V2.93128H9.80107C11.5106 2.93128 12.9673 3.22219 14.1712 3.804C15.375 4.36158 16.2779 5.12522 16.8799 6.09491C17.4818 7.06461 17.7828 8.15552 17.7828 9.36764C17.7828 10.8707 17.3735 12.1192 16.5548 13.1131C15.7603 14.0828 14.7009 14.7858 13.3766 15.2222ZM4.05856 13.8767H9.58437C11.1253 13.8767 12.3172 13.5131 13.1599 12.7858C14.0026 12.0585 14.424 11.0525 14.424 9.76764C14.424 8.48279 14.0026 7.47673 13.1599 6.74946C12.3172 6.02219 11.1013 5.65855 9.51214 5.65855H4.05856V13.8767ZM9.8733 25.5495C11.5106 25.5495 12.7867 25.1616 13.7016 24.3858C14.6166 23.6101 15.0741 22.5313 15.0741 21.1495C15.0741 19.7434 14.5925 18.6404 13.6294 17.8404C12.6663 17.0161 11.3782 16.604 9.76495 16.604H4.05856V25.5495H9.8733Z" fill="black"/>
<path d="M26.2081 11.5858C26.7859 10.4464 27.6046 9.56158 28.664 8.93128C29.7475 8.30097 31.0597 7.98582 32.6007 7.98582V11.404H31.7339C28.05 11.404 26.2081 13.4161 26.2081 17.4404V28.2767H22.9215V8.34946H26.2081V11.5858Z" fill="black"/>
<path d="M38.0921 5.11309C37.466 5.11309 36.9363 4.89491 36.5029 4.45855C36.0695 4.02218 35.8528 3.48885 35.8528 2.85855C35.8528 2.22825 36.0695 1.69491 36.5029 1.25855C36.9363 0.822186 37.466 0.604004 38.0921 0.604004C38.694 0.604004 39.1996 0.822186 39.609 1.25855C40.0423 1.69491 40.259 2.22825 40.259 2.85855C40.259 3.48885 40.0423 4.02218 39.609 4.45855C39.1996 4.89491 38.694 5.11309 38.0921 5.11309ZM39.6812 8.34946V28.2767H36.3946V8.34946H39.6812Z" fill="black"/>
<path d="M49.2915 11.0767V22.8222C49.2915 23.7919 49.4962 24.4828 49.9055 24.8949C50.3148 25.2828 51.0251 25.4767 52.0364 25.4767H54.4562V28.2767H51.4946C49.6647 28.2767 48.2923 27.8525 47.3774 27.004C46.4624 26.1555 46.0049 24.7616 46.0049 22.8222V11.0767H43.4407V8.34946H46.0049V3.33128H49.2915V8.34946H54.4562V11.0767H49.2915Z" fill="black"/>
<path d="M61.7249 1.36764V28.2767H58.4383V1.36764H61.7249Z" fill="black"/>
<path d="M85.3845 17.5495C85.3845 18.1798 85.3484 18.8464 85.2762 19.5495H69.4572C69.5776 21.5131 70.2397 23.0525 71.4436 24.1676C72.6715 25.2585 74.1523 25.804 75.8859 25.804C77.3065 25.804 78.4863 25.4767 79.4253 24.8222C80.3884 24.1434 81.0626 23.2464 81.4478 22.1313H84.9872C84.4575 24.0464 83.3981 25.6101 81.809 26.8222C80.2199 28.0101 78.2455 28.604 75.8859 28.604C74.0078 28.604 72.3224 28.1798 70.8296 27.3313C69.3609 26.4828 68.2051 25.2828 67.3624 23.7313C66.5197 22.1555 66.0983 20.3373 66.0983 18.2767C66.0983 16.2161 66.5077 14.4101 67.3263 12.8585C68.1449 11.307 69.2886 10.1192 70.7574 9.29491C72.2502 8.44643 73.9597 8.02218 75.8859 8.02218C77.7639 8.02218 79.4253 8.43431 80.87 9.25855C82.3146 10.0828 83.4222 11.2222 84.1927 12.6767C84.9872 14.107 85.3845 15.7313 85.3845 17.5495ZM81.9896 16.8585C81.9896 15.5979 81.7127 14.5192 81.1589 13.6222C80.6051 12.701 79.8467 12.0101 78.8835 11.5495C77.9445 11.0646 76.8972 10.8222 75.7414 10.8222C74.0801 10.8222 72.6595 11.3555 71.4797 12.4222C70.324 13.4889 69.6618 14.9676 69.4933 16.8585H81.9896Z" fill="black"/>
<path d="M100.052 28.2767L95.3569 20.8585L90.8423 28.2767H87.4113L93.8039 18.3858L87.4113 8.34946H91.1312L95.8264 15.7313L100.305 8.34946H103.736L97.3794 18.204L103.772 28.2767H100.052Z" fill="black"/>
</svg>
